<svg width="341" height="255" viewBox="0 0 341 255" fill="none" xmlns="http://www.w3.org/2000/svg">
<path d="M331.881 237.008V237.488C331.337 237.504 330.921 237.584 330.633 237.728C330.361 237.872 330.177 238.104 330.081 238.424C329.985 238.744 329.937 239.2 329.937 239.792V254.12C329.841 254.12 329.745 254.12 329.649 254.12C329.569 254.12 329.481 254.12 329.385 254.12L319.305 238.544V251.216C319.305 251.792 319.353 252.248 319.449 252.584C319.561 252.904 319.769 253.136 320.073 253.28C320.393 253.408 320.865 253.488 321.489 253.52V254C321.201 253.968 320.825 253.952 320.361 253.952C319.897 253.936 319.457 253.928 319.041 253.928C318.641 253.928 318.233 253.936 317.817 253.952C317.417 253.952 317.081 253.968 316.809 254V253.52C317.353 253.488 317.761 253.408 318.033 253.28C318.321 253.136 318.513 252.904 318.609 252.584C318.705 252.248 318.753 251.792 318.753 251.216V239.552C318.753 238.96 318.705 238.528 318.609 238.256C318.513 237.968 318.321 237.776 318.033 237.68C317.761 237.568 317.353 237.504 316.809 237.488V237.008C317.081 237.024 317.417 237.04 317.817 237.056C318.233 237.072 318.641 237.08 319.041 237.08C319.393 237.08 319.729 237.072 320.049 237.056C320.369 237.04 320.657 237.024 320.913 237.008L329.385 250.064V239.792C329.385 239.2 329.329 238.744 329.217 238.424C329.121 238.104 328.913 237.872 328.593 237.728C328.289 237.584 327.825 237.504 327.201 237.488V237.008C327.489 237.024 327.865 237.04 328.329 237.056C328.809 237.072 329.249 237.08 329.649 237.08C330.065 237.08 330.473 237.072 330.873 237.056C331.289 237.04 331.625 237.024 331.881 237.008Z" fill="white"/>
<path d="M301.343 236.672C302.863 236.672 304.191 237.016 305.327 237.704C306.479 238.392 307.367 239.384 307.991 240.68C308.631 241.96 308.951 243.52 308.951 245.36C308.951 247.152 308.623 248.72 307.967 250.064C307.327 251.408 306.431 252.456 305.279 253.208C304.127 253.96 302.807 254.336 301.319 254.336C299.799 254.336 298.463 253.992 297.311 253.304C296.175 252.616 295.287 251.624 294.647 250.328C294.023 249.032 293.711 247.472 293.711 245.648C293.711 243.856 294.039 242.288 294.695 240.944C295.351 239.6 296.247 238.552 297.383 237.8C298.535 237.048 299.855 236.672 301.343 236.672ZM301.247 237.104C300.207 237.104 299.303 237.464 298.535 238.184C297.767 238.904 297.167 239.896 296.735 241.16C296.319 242.424 296.111 243.888 296.111 245.552C296.111 247.248 296.343 248.728 296.807 249.992C297.287 251.24 297.927 252.208 298.727 252.896C299.543 253.568 300.439 253.904 301.415 253.904C302.455 253.904 303.359 253.544 304.127 252.824C304.895 252.104 305.487 251.112 305.903 249.848C306.335 248.568 306.551 247.104 306.551 245.456C306.551 243.744 306.311 242.264 305.831 241.016C305.367 239.768 304.735 238.808 303.935 238.136C303.135 237.448 302.239 237.104 301.247 237.104Z" fill="white"/>
<path d="M285.862 237.008V237.488C285.318 237.504 284.902 237.568 284.614 237.68C284.342 237.776 284.158 237.968 284.062 238.256C283.966 238.528 283.918 238.96 283.918 239.552V251.456C283.918 252.032 283.966 252.464 284.062 252.752C284.158 253.04 284.342 253.232 284.614 253.328C284.902 253.424 285.318 253.488 285.862 253.52V254C285.494 253.968 285.03 253.952 284.47 253.952C283.926 253.936 283.374 253.928 282.814 253.928C282.19 253.928 281.606 253.936 281.062 253.952C280.518 253.952 280.078 253.968 279.742 254V253.52C280.286 253.488 280.694 253.424 280.966 253.328C281.254 253.232 281.446 253.04 281.542 252.752C281.638 252.464 281.686 252.032 281.686 251.456V239.552C281.686 238.96 281.638 238.528 281.542 238.256C281.446 237.968 281.254 237.776 280.966 237.68C280.694 237.568 280.286 237.504 279.742 237.488V237.008C280.078 237.024 280.518 237.04 281.062 237.056C281.606 237.072 282.19 237.08 282.814 237.08C283.374 237.08 283.926 237.072 284.47 237.056C285.03 237.04 285.494 237.024 285.862 237.008Z" fill="white"/>
<path d="M272.276 237.008C272.212 237.616 272.164 238.208 272.132 238.784C272.116 239.344 272.108 239.776 272.108 240.08C272.108 240.464 272.116 240.824 272.132 241.16C272.148 241.496 272.164 241.792 272.18 242.048H271.628C271.516 240.928 271.364 240.048 271.172 239.408C270.98 238.752 270.644 238.28 270.164 237.992C269.684 237.704 268.94 237.56 267.932 237.56H266.636V251.216C266.636 251.856 266.692 252.336 266.804 252.656C266.932 252.976 267.172 253.192 267.524 253.304C267.876 253.416 268.388 253.488 269.06 253.52V254C268.644 253.968 268.116 253.952 267.476 253.952C266.836 253.936 266.188 253.928 265.532 253.928C264.812 253.928 264.132 253.936 263.492 253.952C262.868 253.952 262.364 253.968 261.98 254V253.52C262.652 253.488 263.164 253.416 263.516 253.304C263.868 253.192 264.1 252.976 264.212 252.656C264.34 252.336 264.404 251.856 264.404 251.216V237.56H263.108C262.116 237.56 261.372 237.704 260.876 237.992C260.396 238.28 260.06 238.752 259.868 239.408C259.676 240.048 259.524 240.928 259.412 242.048H258.86C258.892 241.792 258.908 241.496 258.908 241.16C258.924 240.824 258.932 240.464 258.932 240.08C258.932 239.776 258.916 239.344 258.884 238.784C258.868 238.208 258.828 237.616 258.764 237.008C259.436 237.024 260.164 237.04 260.948 237.056C261.748 237.072 262.548 237.08 263.348 237.08C264.148 237.08 264.876 237.08 265.532 237.08C266.188 237.08 266.908 237.08 267.692 237.08C268.492 237.08 269.292 237.072 270.092 237.056C270.892 237.04 271.62 237.024 272.276 237.008Z" fill="white"/>
<path d="M246.137 236.888L251.993 251.984C252.233 252.592 252.505 253 252.809 253.208C253.113 253.4 253.393 253.504 253.649 253.52V254C253.329 253.968 252.937 253.952 252.473 253.952C252.009 253.936 251.545 253.928 251.081 253.928C250.457 253.928 249.873 253.936 249.329 253.952C248.785 253.952 248.345 253.968 248.009 254V253.52C248.825 253.488 249.345 253.352 249.569 253.112C249.793 252.856 249.745 252.32 249.425 251.504L244.961 239.576L245.345 239.264L241.169 250.112C240.913 250.752 240.761 251.296 240.713 251.744C240.665 252.176 240.705 252.52 240.833 252.776C240.977 253.032 241.209 253.216 241.529 253.328C241.865 253.44 242.281 253.504 242.777 253.52V254C242.329 253.968 241.857 253.952 241.361 253.952C240.881 253.936 240.433 253.928 240.017 253.928C239.617 253.928 239.273 253.936 238.985 253.952C238.713 253.952 238.457 253.968 238.217 254V253.52C238.537 253.44 238.865 253.256 239.201 252.968C239.537 252.664 239.841 252.152 240.113 251.432L245.753 236.888C245.817 236.888 245.881 236.888 245.945 236.888C246.009 236.888 246.073 236.888 246.137 236.888ZM249.065 247.088V247.568H241.913L242.153 247.088H249.065Z" fill="white"/>
<path d="M223.357 237.008C226.221 237.008 228.349 237.728 229.741 239.168C231.133 240.592 231.829 242.64 231.829 245.312C231.829 247.056 231.485 248.584 230.797 249.896C230.125 251.192 229.141 252.2 227.845 252.92C226.549 253.64 224.981 254 223.141 254C222.901 254 222.581 253.992 222.181 253.976C221.781 253.96 221.365 253.952 220.933 253.952C220.517 253.936 220.133 253.928 219.781 253.928C219.221 253.928 218.669 253.936 218.125 253.952C217.581 253.952 217.141 253.968 216.805 254V253.52C217.349 253.488 217.757 253.424 218.029 253.328C218.317 253.232 218.509 253.04 218.605 252.752C218.701 252.464 218.749 252.032 218.749 251.456V239.552C218.749 238.96 218.701 238.528 218.605 238.256C218.509 237.968 218.317 237.776 218.029 237.68C217.757 237.568 217.349 237.504 216.805 237.488V237.008C217.141 237.024 217.581 237.048 218.125 237.08C218.669 237.096 219.205 237.096 219.733 237.08C220.293 237.064 220.925 237.048 221.629 237.032C222.333 237.016 222.909 237.008 223.357 237.008ZM222.757 237.44C222.021 237.44 221.541 237.576 221.317 237.848C221.093 238.12 220.981 238.672 220.981 239.504V251.504C220.981 252.336 221.093 252.888 221.317 253.16C221.557 253.432 222.045 253.568 222.781 253.568C224.525 253.568 225.877 253.256 226.837 252.632C227.797 251.992 228.469 251.064 228.853 249.848C229.237 248.632 229.429 247.152 229.429 245.408C229.429 243.616 229.213 242.136 228.781 240.968C228.365 239.784 227.669 238.904 226.693 238.328C225.733 237.736 224.421 237.44 222.757 237.44Z" fill="white"/>
<path d="M209.172 237.008V237.488C208.628 237.504 208.212 237.584 207.924 237.728C207.652 237.872 207.468 238.104 207.372 238.424C207.276 238.744 207.228 239.2 207.228 239.792V254.12C207.132 254.12 207.036 254.12 206.94 254.12C206.86 254.12 206.772 254.12 206.676 254.12L196.596 238.544V251.216C196.596 251.792 196.644 252.248 196.74 252.584C196.852 252.904 197.06 253.136 197.364 253.28C197.684 253.408 198.156 253.488 198.78 253.52V254C198.492 253.968 198.116 253.952 197.652 253.952C197.188 253.936 196.748 253.928 196.332 253.928C195.932 253.928 195.524 253.936 195.108 253.952C194.708 253.952 194.372 253.968 194.1 254V253.52C194.644 253.488 195.052 253.408 195.324 253.28C195.612 253.136 195.804 252.904 195.9 252.584C195.996 252.248 196.044 251.792 196.044 251.216V239.552C196.044 238.96 195.996 238.528 195.9 238.256C195.804 237.968 195.612 237.776 195.324 237.68C195.052 237.568 194.644 237.504 194.1 237.488V237.008C194.372 237.024 194.708 237.04 195.108 237.056C195.524 237.072 195.932 237.08 196.332 237.08C196.684 237.08 197.02 237.072 197.34 237.056C197.66 237.04 197.948 237.024 198.204 237.008L206.676 250.064V239.792C206.676 239.2 206.62 238.744 206.508 238.424C206.412 238.104 206.204 237.872 205.884 237.728C205.58 237.584 205.116 237.504 204.492 237.488V237.008C204.78 237.024 205.156 237.04 205.62 237.056C206.1 237.072 206.54 237.08 206.94 237.08C207.356 237.08 207.764 237.072 208.164 237.056C208.58 237.04 208.916 237.024 209.172 237.008Z" fill="white"/>
<path d="M186.693 237.008V237.488C186.149 237.504 185.733 237.584 185.445 237.728C185.173 237.872 184.989 238.104 184.893 238.424C184.797 238.744 184.749 239.2 184.749 239.792V247.016C184.749 248.136 184.677 249.112 184.533 249.944C184.389 250.776 184.133 251.496 183.765 252.104C183.365 252.776 182.781 253.32 182.013 253.736C181.245 254.136 180.365 254.336 179.373 254.336C178.605 254.336 177.869 254.24 177.165 254.048C176.477 253.872 175.869 253.536 175.341 253.04C174.877 252.592 174.509 252.12 174.237 251.624C173.981 251.128 173.805 250.52 173.709 249.8C173.613 249.08 173.565 248.176 173.565 247.088V239.552C173.565 238.96 173.517 238.528 173.421 238.256C173.325 237.968 173.133 237.776 172.845 237.68C172.573 237.568 172.165 237.504 171.621 237.488V237.008C171.957 237.024 172.397 237.04 172.941 237.056C173.485 237.072 174.069 237.08 174.693 237.08C175.253 237.08 175.805 237.072 176.349 237.056C176.909 237.04 177.373 237.024 177.741 237.008V237.488C177.197 237.504 176.781 237.568 176.493 237.68C176.221 237.776 176.037 237.968 175.941 238.256C175.845 238.528 175.797 238.96 175.797 239.552V247.496C175.797 248.312 175.837 249.088 175.917 249.824C175.997 250.544 176.157 251.184 176.397 251.744C176.653 252.288 177.037 252.72 177.549 253.04C178.061 253.344 178.741 253.496 179.589 253.496C180.805 253.496 181.741 253.232 182.397 252.704C183.069 252.16 183.533 251.416 183.789 250.472C184.061 249.528 184.197 248.464 184.197 247.28V239.792C184.197 239.2 184.125 238.744 183.981 238.424C183.853 238.104 183.629 237.872 183.309 237.728C182.989 237.584 182.557 237.504 182.013 237.488V237.008C182.301 237.024 182.677 237.04 183.141 237.056C183.621 237.072 184.061 237.08 184.461 237.08C184.877 237.08 185.285 237.072 185.685 237.056C186.101 237.04 186.437 237.024 186.693 237.008Z" fill="white"/>
<path d="M156.468 236.672C157.988 236.672 159.316 237.016 160.452 237.704C161.604 238.392 162.492 239.384 163.116 240.68C163.756 241.96 164.076 243.52 164.076 245.36C164.076 247.152 163.748 248.72 163.092 250.064C162.452 251.408 161.556 252.456 160.404 253.208C159.252 253.96 157.932 254.336 156.444 254.336C154.924 254.336 153.588 253.992 152.436 253.304C151.3 252.616 150.412 251.624 149.772 250.328C149.148 249.032 148.836 247.472 148.836 245.648C148.836 243.856 149.164 242.288 149.82 240.944C150.476 239.6 151.372 238.552 152.508 237.8C153.66 237.048 154.98 236.672 156.468 236.672ZM156.372 237.104C155.332 237.104 154.428 237.464 153.66 238.184C152.892 238.904 152.292 239.896 151.86 241.16C151.444 242.424 151.236 243.888 151.236 245.552C151.236 247.248 151.468 248.728 151.932 249.992C152.412 251.24 153.052 252.208 153.852 252.896C154.668 253.568 155.564 253.904 156.54 253.904C157.58 253.904 158.484 253.544 159.252 252.824C160.02 252.104 160.612 251.112 161.028 249.848C161.46 248.568 161.676 247.104 161.676 245.456C161.676 243.744 161.436 242.264 160.956 241.016C160.492 239.768 159.86 238.808 159.06 238.136C158.26 237.448 157.364 237.104 156.372 237.104Z" fill="white"/>
<path d="M141.359 237.008C141.295 237.616 141.247 238.208 141.215 238.784C141.199 239.344 141.191 239.776 141.191 240.08C141.191 240.464 141.199 240.824 141.215 241.16C141.231 241.496 141.247 241.792 141.263 242.048H140.711C140.599 240.928 140.447 240.048 140.255 239.408C140.063 238.752 139.727 238.28 139.247 237.992C138.767 237.704 138.023 237.56 137.015 237.56H135.503C134.959 237.56 134.543 237.608 134.255 237.704C133.983 237.784 133.799 237.968 133.703 238.256C133.607 238.528 133.559 238.96 133.559 239.552V251.456C133.559 252.032 133.615 252.464 133.727 252.752C133.855 253.04 134.095 253.232 134.447 253.328C134.799 253.424 135.311 253.488 135.983 253.52V254C135.567 253.968 135.039 253.952 134.399 253.952C133.759 253.936 133.111 253.928 132.455 253.928C131.831 253.928 131.247 253.936 130.703 253.952C130.159 253.952 129.719 253.968 129.383 254V253.52C129.927 253.488 130.335 253.424 130.607 253.328C130.895 253.232 131.087 253.04 131.183 252.752C131.279 252.464 131.327 252.032 131.327 251.456V239.552C131.327 238.96 131.279 238.528 131.183 238.256C131.087 237.968 130.895 237.776 130.607 237.68C130.335 237.568 129.927 237.504 129.383 237.488V237.008C129.975 237.024 130.599 237.04 131.255 237.056C131.911 237.056 132.559 237.064 133.199 237.08C133.839 237.08 134.431 237.08 134.975 237.08C135.535 237.08 135.991 237.08 136.343 237.08C137.079 237.08 137.911 237.08 138.839 237.08C139.783 237.064 140.623 237.04 141.359 237.008ZM137.639 245.456C137.639 245.456 137.639 245.536 137.639 245.696C137.639 245.856 137.639 245.936 137.639 245.936H132.839C132.839 245.936 132.839 245.856 132.839 245.696C132.839 245.536 132.839 245.456 132.839 245.456H137.639ZM138.095 242.288C138.031 243.2 137.999 243.896 137.999 244.376C138.015 244.856 138.023 245.296 138.023 245.696C138.023 246.096 138.031 246.536 138.047 247.016C138.063 247.496 138.103 248.192 138.167 249.104H137.615C137.551 248.592 137.471 248.096 137.375 247.616C137.295 247.12 137.103 246.72 136.799 246.416C136.511 246.096 136.015 245.936 135.311 245.936V245.456C135.839 245.456 136.239 245.352 136.511 245.144C136.799 244.92 137.007 244.64 137.135 244.304C137.263 243.968 137.351 243.624 137.399 243.272C137.447 242.904 137.495 242.576 137.543 242.288H138.095Z" fill="white"/>
<path d="M111.584 237.008V237.488C111.28 237.552 110.976 237.752 110.672 238.088C110.368 238.408 110.032 238.92 109.664 239.624L104.816 249.224H104.408L98.7924 238.856C98.4724 238.264 98.2004 237.896 97.9764 237.752C97.7684 237.592 97.5764 237.512 97.4004 237.512V237.008C97.7204 237.024 98.0484 237.04 98.3844 237.056C98.7364 237.072 99.1124 237.08 99.5124 237.08C100.04 237.08 100.6 237.08 101.192 237.08C101.8 237.064 102.36 237.04 102.872 237.008V237.512C102.472 237.512 102.12 237.56 101.816 237.656C101.512 237.752 101.312 237.928 101.216 238.184C101.12 238.44 101.192 238.8 101.432 239.264L105.488 247.04L105.296 247.184L108.488 240.824C108.936 239.944 109.152 239.264 109.136 238.784C109.136 238.304 108.952 237.976 108.584 237.8C108.216 237.608 107.696 237.504 107.024 237.488V237.008C107.488 237.024 107.96 237.04 108.44 237.056C108.92 237.072 109.368 237.08 109.784 237.08C110.2 237.08 110.544 237.072 110.816 237.056C111.088 237.04 111.344 237.024 111.584 237.008ZM105.896 246.704V251.456C105.896 252.032 105.944 252.464 106.04 252.752C106.136 253.04 106.32 253.232 106.592 253.328C106.88 253.424 107.296 253.488 107.84 253.52V254C107.472 253.968 107.008 253.952 106.448 253.952C105.904 253.936 105.352 253.928 104.792 253.928C104.168 253.928 103.584 253.936 103.04 253.952C102.496 253.952 102.056 253.968 101.72 254V253.52C102.264 253.488 102.672 253.424 102.944 253.328C103.232 253.232 103.424 253.04 103.52 252.752C103.616 252.464 103.664 252.032 103.664 251.456V246.536L104.96 248.024L105.896 246.704Z" fill="white"/>
<path d="M86.4169 237.008V237.488C85.8729 237.504 85.4569 237.568 85.1689 237.68C84.8969 237.776 84.7129 237.968 84.6169 238.256C84.5209 238.528 84.4729 238.96 84.4729 239.552V251.456C84.4729 252.032 84.5209 252.464 84.6169 252.752C84.7129 253.04 84.8969 253.232 85.1689 253.328C85.4569 253.408 85.8729 253.448 86.4169 253.448H88.1689C88.9209 253.448 89.5289 253.368 89.9929 253.208C90.4729 253.048 90.8489 252.8 91.1209 252.464C91.4089 252.112 91.6249 251.648 91.7689 251.072C91.9129 250.496 92.0249 249.792 92.1049 248.96H92.6569C92.6089 249.456 92.5849 250.112 92.5849 250.928C92.5849 251.232 92.5929 251.672 92.6089 252.248C92.6409 252.808 92.6889 253.392 92.7529 254C91.9369 253.968 91.0169 253.952 89.9929 253.952C88.9689 253.936 88.0569 253.928 87.2569 253.928C86.9049 253.928 86.4489 253.928 85.8889 253.928C85.3449 253.928 84.7529 253.936 84.1129 253.952C83.4729 253.952 82.8249 253.96 82.1689 253.976C81.5129 253.976 80.8889 253.984 80.2969 254V253.52C80.8409 253.488 81.2489 253.424 81.5209 253.328C81.8089 253.232 82.0009 253.04 82.0969 252.752C82.1929 252.464 82.2409 252.032 82.2409 251.456V239.552C82.2409 238.96 82.1929 238.528 82.0969 238.256C82.0009 237.968 81.8089 237.776 81.5209 237.68C81.2489 237.568 80.8409 237.504 80.2969 237.488V237.008C80.6329 237.024 81.0729 237.04 81.6169 237.056C82.1609 237.072 82.7449 237.08 83.3689 237.08C83.9289 237.08 84.4809 237.072 85.0249 237.056C85.5849 237.04 86.0489 237.024 86.4169 237.008Z" fill="white"/>
<path d="M72.5243 237.008V237.488C71.9803 237.504 71.5643 237.568 71.2763 237.68C71.0043 237.776 70.8203 237.968 70.7243 238.256C70.6283 238.528 70.5803 238.96 70.5803 239.552V251.456C70.5803 252.032 70.6283 252.464 70.7243 252.752C70.8203 253.04 71.0043 253.232 71.2763 253.328C71.5643 253.424 71.9803 253.488 72.5243 253.52V254C72.1563 253.968 71.6923 253.952 71.1323 253.952C70.5883 253.936 70.0363 253.928 69.4763 253.928C68.8523 253.928 68.2683 253.936 67.7243 253.952C67.1803 253.952 66.7403 253.968 66.4043 254V253.52C66.9483 253.488 67.3563 253.424 67.6283 253.328C67.9163 253.232 68.1083 253.04 68.2043 252.752C68.3003 252.464 68.3483 252.032 68.3483 251.456V239.552C68.3483 238.96 68.3003 238.528 68.2043 238.256C68.1083 237.968 67.9163 237.776 67.6283 237.68C67.3563 237.568 66.9483 237.504 66.4043 237.488V237.008C66.7403 237.024 67.1803 237.04 67.7243 237.056C68.2683 237.072 68.8523 237.08 69.4763 237.08C70.0363 237.08 70.5883 237.072 71.1323 237.056C71.6923 237.04 72.1563 237.024 72.5243 237.008Z" fill="white"/>
<path d="M58.6263 237.008V237.488C58.0823 237.504 57.6663 237.568 57.3783 237.68C57.1063 237.776 56.9223 237.968 56.8263 238.256C56.7303 238.528 56.6823 238.96 56.6823 239.552V251.456C56.6823 252.032 56.7303 252.464 56.8263 252.752C56.9223 253.04 57.1063 253.232 57.3783 253.328C57.6663 253.424 58.0823 253.488 58.6263 253.52V254C58.2583 253.968 57.7943 253.952 57.2343 253.952C56.6903 253.936 56.1383 253.928 55.5783 253.928C54.9543 253.928 54.3703 253.936 53.8263 253.952C53.2823 253.952 52.8423 253.968 52.5063 254V253.52C53.0503 253.488 53.4583 253.424 53.7303 253.328C54.0183 253.232 54.2103 253.04 54.3063 252.752C54.4023 252.464 54.4503 252.032 54.4503 251.456V238.256L54.5463 238.328L48.6663 254.12H48.2823L42.2343 238.544V251.216C42.2343 251.792 42.2823 252.248 42.3783 252.584C42.4903 252.904 42.6983 253.136 43.0023 253.28C43.3223 253.408 43.7943 253.488 44.4183 253.52V254C44.1303 253.968 43.7543 253.952 43.2903 253.952C42.8263 253.936 42.3863 253.928 41.9703 253.928C41.5703 253.928 41.1623 253.936 40.7463 253.952C40.3463 253.952 40.0103 253.968 39.7383 254V253.52C40.2823 253.488 40.6903 253.408 40.9623 253.28C41.2503 253.136 41.4423 252.904 41.5383 252.584C41.6343 252.248 41.6823 251.792 41.6823 251.216V239.552C41.6823 238.96 41.6343 238.528 41.5383 238.256C41.4423 237.968 41.2503 237.776 40.9623 237.68C40.6903 237.568 40.2823 237.504 39.7383 237.488V237.008C40.0103 237.024 40.3463 237.04 40.7463 237.056C41.1623 237.072 41.5703 237.08 41.9703 237.08C42.3223 237.08 42.6823 237.072 43.0503 237.056C43.4343 237.04 43.7543 237.024 44.0103 237.008L49.4583 251.36L49.0503 251.552L54.4503 237.08C54.6423 237.08 54.8263 237.08 55.0023 237.08C55.1943 237.08 55.3863 237.08 55.5783 237.08C56.1383 237.08 56.6903 237.072 57.2343 237.056C57.7943 237.04 58.2583 237.024 58.6263 237.008Z" fill="white"/>
<path d="M26.0743 236.888L31.9303 251.984C32.1703 252.592 32.4423 253 32.7463 253.208C33.0503 253.4 33.3303 253.504 33.5863 253.52V254C33.2663 253.968 32.8743 253.952 32.4103 253.952C31.9463 253.936 31.4823 253.928 31.0183 253.928C30.3943 253.928 29.8103 253.936 29.2663 253.952C28.7223 253.952 28.2823 253.968 27.9463 254V253.52C28.7623 253.488 29.2823 253.352 29.5063 253.112C29.7303 252.856 29.6823 252.32 29.3623 251.504L24.8983 239.576L25.2823 239.264L21.1063 250.112C20.8503 250.752 20.6983 251.296 20.6503 251.744C20.6023 252.176 20.6423 252.52 20.7703 252.776C20.9143 253.032 21.1463 253.216 21.4663 253.328C21.8023 253.44 22.2183 253.504 22.7143 253.52V254C22.2663 253.968 21.7943 253.952 21.2983 253.952C20.8183 253.936 20.3703 253.928 19.9543 253.928C19.5543 253.928 19.2103 253.936 18.9223 253.952C18.6503 253.952 18.3943 253.968 18.1543 254V253.52C18.4743 253.44 18.8023 253.256 19.1383 252.968C19.4743 252.664 19.7783 252.152 20.0503 251.432L25.6903 236.888C25.7543 236.888 25.8183 236.888 25.8823 236.888C25.9463 236.888 26.0103 236.888 26.0743 236.888ZM29.0023 247.088V247.568H21.8503L22.0903 247.088H29.0023Z" fill="white"/>
<path d="M12.9838 237.008C12.9198 237.616 12.8718 238.208 12.8398 238.784C12.8238 239.344 12.8158 239.776 12.8158 240.08C12.8158 240.464 12.8238 240.824 12.8398 241.16C12.8558 241.496 12.8718 241.792 12.8878 242.048H12.3358C12.2238 240.928 12.0718 240.048 11.8798 239.408C11.6878 238.752 11.3518 238.28 10.8718 237.992C10.3918 237.704 9.64781 237.56 8.63981 237.56H7.12781C6.58381 237.56 6.16781 237.608 5.87981 237.704C5.60781 237.784 5.42381 237.968 5.32781 238.256C5.23181 238.528 5.18381 238.96 5.18381 239.552V251.456C5.18381 252.032 5.23981 252.464 5.35181 252.752C5.47981 253.04 5.71981 253.232 6.07181 253.328C6.42381 253.424 6.93581 253.488 7.60781 253.52V254C7.19181 253.968 6.66381 253.952 6.02381 253.952C5.38381 253.936 4.73581 253.928 4.07981 253.928C3.45581 253.928 2.87181 253.936 2.32781 253.952C1.78381 253.952 1.34381 253.968 1.00781 254V253.52C1.55181 253.488 1.95981 253.424 2.23181 253.328C2.51981 253.232 2.71181 253.04 2.80781 252.752C2.90381 252.464 2.95181 252.032 2.95181 251.456V239.552C2.95181 238.96 2.90381 238.528 2.80781 238.256C2.71181 237.968 2.51981 237.776 2.23181 237.68C1.95981 237.568 1.55181 237.504 1.00781 237.488V237.008C1.59981 237.024 2.22381 237.04 2.87981 237.056C3.53581 237.056 4.18381 237.064 4.82381 237.08C5.46381 237.08 6.05581 237.08 6.59981 237.08C7.15981 237.08 7.61581 237.08 7.96781 237.08C8.70381 237.08 9.53581 237.08 10.4638 237.08C11.4078 237.064 12.2478 237.04 12.9838 237.008ZM9.26381 245.456C9.26381 245.456 9.26381 245.536 9.26381 245.696C9.26381 245.856 9.26381 245.936 9.26381 245.936H4.46381C4.46381 245.936 4.46381 245.856 4.46381 245.696C4.46381 245.536 4.46381 245.456 4.46381 245.456H9.26381ZM9.71981 242.288C9.65581 243.2 9.62381 243.896 9.62381 244.376C9.63981 244.856 9.64781 245.296 9.64781 245.696C9.64781 246.096 9.65581 246.536 9.67181 247.016C9.68781 247.496 9.72781 248.192 9.79181 249.104H9.23981C9.17581 248.592 9.09581 248.096 8.99981 247.616C8.91981 247.12 8.72781 246.72 8.42381 246.416C8.13581 246.096 7.63981 245.936 6.93581 245.936V245.456C7.46381 245.456 7.86381 245.352 8.13581 245.144C8.42381 244.92 8.63181 244.64 8.75981 244.304C8.88781 243.968 8.97581 243.624 9.02381 243.272C9.07181 242.904 9.11981 242.576 9.16781 242.288H9.71981Z" fill="white"/>
<path d="M200.743 23.605C198.39 23.605 196.11 24.5609 193.904 26.4729C191.772 28.3112 189.786 30.8482 187.948 34.0838C186.183 37.2458 184.602 40.8123 183.205 44.7832C181.881 48.7541 180.852 52.8721 180.116 57.1371C179.381 61.4022 179.013 65.4834 179.013 69.3807C179.013 72.6898 179.528 75.1165 180.558 76.6607C181.661 78.205 183.242 78.9771 185.301 78.9771C187.654 78.9771 189.897 78.0579 192.029 76.2195C194.235 74.3076 196.257 71.7706 198.096 68.6086C199.934 65.3731 201.515 61.7698 202.839 57.7989C204.163 53.828 205.192 49.7468 205.927 45.5553C206.663 41.2902 207.03 37.1723 207.03 33.2013C207.03 29.8187 206.516 27.3921 205.486 25.9213C204.457 24.3771 202.876 23.605 200.743 23.605ZM169.527 63.8656C169.527 60.63 169.969 57.1003 170.851 53.2765C171.733 49.4527 173.057 45.6656 174.822 41.9153C176.587 38.165 178.719 34.7456 181.219 31.6571C183.793 28.5686 186.771 26.1052 190.154 24.2668C193.537 22.3549 197.287 21.3989 201.405 21.3989C205.964 21.3989 209.604 22.8329 212.325 25.7007C215.119 28.4951 216.516 32.8337 216.516 38.7165C216.516 41.9521 216.075 45.4818 215.193 49.3056C214.31 53.1294 212.987 56.9165 211.222 60.6668C209.457 64.4171 207.288 67.8365 204.714 70.925C202.214 74.0135 199.272 76.5137 195.89 78.4256C192.507 80.264 188.757 81.1832 184.639 81.1832C180.08 81.1832 176.403 79.7492 173.609 76.8814C170.888 74.0135 169.527 69.6749 169.527 63.8656Z" fill="white"/>
<path d="M167.108 22.9431L166.777 25.1492H132.472L133.024 22.9431H167.108ZM139.091 70.2631C138.429 72.6898 138.576 74.4546 139.532 75.5577C140.561 76.5872 141.885 77.1019 143.503 77.1019C145.121 77.1019 146.738 76.4033 148.356 75.0062C150.047 73.609 151.702 70.6308 153.32 66.0716L154.864 61.7698H156.96L154.643 68.7189C153.026 73.4987 150.93 76.771 148.356 78.5359C145.856 80.3007 142.914 81.1831 139.532 81.1831C136.517 81.1831 134.201 80.5581 132.583 79.308C131.038 77.9843 130.119 76.146 129.825 73.7928C129.531 71.4397 129.825 68.7557 130.708 65.7407L147.805 6.17706C149.569 6.10352 151.297 5.95645 152.989 5.73584C154.754 5.51523 156.335 5.14756 157.732 4.63281L139.091 70.2631Z" fill="white"/>
<path d="M101.005 23.605C98.6517 23.605 96.3721 24.5609 94.166 26.4729C92.0335 28.3112 90.0481 30.8482 88.2097 34.0838C86.4448 37.2458 84.8638 40.8123 83.4666 44.7832C82.143 48.7541 81.1135 52.8721 80.3782 57.1371C79.6428 61.4022 79.2751 65.4834 79.2751 69.3807C79.2751 72.6898 79.7899 75.1165 80.8194 76.6607C81.9224 78.205 83.5034 78.9771 85.5624 78.9771C87.9155 78.9771 90.1584 78.0579 92.2909 76.2195C94.497 74.3076 96.5192 71.7706 98.3575 68.6086C100.196 65.3731 101.777 61.7698 103.101 57.7989C104.424 53.828 105.454 49.7468 106.189 45.5553C106.924 41.2902 107.292 37.1723 107.292 33.2013C107.292 29.8187 106.777 27.3921 105.748 25.9213C104.718 24.3771 103.137 23.605 101.005 23.605ZM69.7891 63.8656C69.7891 60.63 70.2303 57.1003 71.1127 53.2765C71.9951 49.4527 73.3188 45.6656 75.0836 41.9153C76.8485 38.165 78.981 34.7456 81.4812 31.6571C84.0549 28.5686 87.0331 26.1052 90.4157 24.2668C93.7984 22.3549 97.5487 21.3989 101.667 21.3989C106.226 21.3989 109.866 22.8329 112.587 25.7007C115.381 28.4951 116.778 32.8337 116.778 38.7165C116.778 41.9521 116.337 45.4818 115.455 49.3056C114.572 53.1294 113.248 56.9165 111.484 60.6668C109.719 64.4171 107.549 67.8365 104.976 70.925C102.476 74.0135 99.5341 76.5137 96.1515 78.4256C92.7689 80.264 89.0186 81.1832 84.9006 81.1832C80.3414 81.1832 76.6646 79.7492 73.8703 76.8814C71.1495 74.0135 69.7891 69.6749 69.7891 63.8656Z" fill="white"/>
<path d="M65.52 0.772126C64.7847 2.68405 63.7919 5.47839 62.5418 9.15516C61.3653 12.7584 60.1887 17.4646 59.0121 23.2739H56.8061C57.0267 22.2444 57.1737 21.1782 57.2473 20.0752C57.3944 18.9721 57.4679 17.9426 57.4679 16.9867C57.4679 14.2659 56.9164 11.8024 55.8133 9.59637C54.7838 7.31678 53.1293 5.51516 50.8497 4.19152C48.5701 2.79435 45.5552 2.09576 41.8049 2.09576C37.3927 2.09576 33.716 3.23556 30.7746 5.51516C27.8331 7.79475 26.3624 11.3245 26.3624 16.1042C26.3624 18.8986 27.0243 21.5091 28.3479 23.9358C29.7451 26.2889 31.4731 28.5685 33.5321 30.7746C35.6647 32.9071 37.9075 35.0764 40.2606 37.2824C42.6873 39.415 44.9301 41.621 46.9891 43.9006C49.1216 46.1802 50.8497 48.6069 52.1733 51.1806C53.5705 53.6808 54.2691 56.4752 54.2691 59.5637C54.2691 63.3875 53.4234 66.6598 51.7321 69.3806C50.0408 72.1014 47.8348 74.3443 45.1139 76.1091C42.3931 77.8004 39.3782 79.0505 36.0691 79.8594C32.8335 80.7418 29.598 81.1831 26.3624 81.1831C23.421 81.1831 20.9576 80.8889 18.9721 80.3006C16.9867 79.7859 15.3321 79.1241 14.0085 78.3152C12.6849 77.5063 11.5818 76.7709 10.6994 76.1091C9.89051 75.4473 9.11839 75.0061 8.38303 74.7855C7.72121 74.5649 7.1697 74.4546 6.72849 74.4546C5.77253 74.4546 4.96364 74.9693 4.30182 75.9988C3.71354 76.9548 3.01495 78.4255 2.20606 80.4109H0C0.661818 78.7931 1.3604 76.918 2.09576 74.7855C2.83111 72.6529 3.64 69.9321 4.52243 66.623C5.40485 63.2404 6.39758 59.0121 7.50061 53.9382H9.70667C9.41253 55.4824 9.15515 56.9899 8.93455 58.4606C8.71394 59.8578 8.64041 61.3285 8.71394 62.8727C8.93455 67.8731 10.4788 71.8073 13.3467 74.6752C16.2145 77.543 20.6634 78.977 26.6933 78.977C31.4731 78.977 35.3705 77.874 38.3855 75.6679C41.4004 73.4618 42.9079 69.9689 42.9079 65.1891C42.9079 62.1006 42.2828 59.343 41.0327 56.9164C39.8562 54.4897 38.2752 52.2469 36.2897 50.1879C34.3778 48.0554 32.3188 45.9964 30.1127 44.0109C27.9802 42.0255 25.9212 39.9665 23.9358 37.834C22.0238 35.6279 20.4428 33.2012 19.1927 30.5539C18.0162 27.9067 17.4279 24.8917 17.4279 21.5091C17.4279 17.9794 18.1265 14.8909 19.5236 12.2436C20.9208 9.52284 22.7592 7.28001 25.0388 5.51516C27.3919 3.67677 30.0024 2.31637 32.8703 1.43394C35.7382 0.47798 38.6796 0 41.6946 0C44.783 0 47.4303 0.36768 49.6364 1.10304C51.8424 1.83839 53.975 3.01495 56.0339 4.63273C56.9164 5.29455 57.6517 5.8093 58.24 6.17698C58.8283 6.47112 59.3063 6.61818 59.6739 6.61818C60.7034 6.61818 61.9168 4.6695 63.314 0.772126H65.52Z" fill="white"/>
<path d="M340.252 127.943L339.921 130.149H305.617L306.168 127.943H340.252ZM312.235 175.263C311.573 177.69 311.72 179.455 312.676 180.558C313.706 181.587 315.029 182.102 316.647 182.102C318.265 182.102 319.883 181.403 321.501 180.006C323.192 178.609 324.846 175.631 326.464 171.072L328.008 166.77H330.104L327.788 173.719C326.17 178.499 324.074 181.771 321.501 183.536C319 185.301 316.059 186.183 312.676 186.183C309.661 186.183 307.345 185.558 305.727 184.308C304.183 182.984 303.264 181.146 302.97 178.793C302.676 176.44 302.97 173.756 303.852 170.741L320.949 111.177C322.714 111.104 324.442 110.956 326.133 110.736C327.898 110.515 329.479 110.148 330.876 109.633L312.235 175.263Z" fill="white"/>
<path d="M243.942 184.639H234.346L256.186 111.067C256.921 108.567 256.811 106.728 255.855 105.552C254.972 104.375 252.73 103.787 249.126 103.787L249.788 101.471C253.833 101.397 257.473 100.993 260.708 100.257C263.944 99.4484 266.922 98.3454 269.643 96.9482L243.942 184.639ZM247.031 168.314C249.825 160.593 252.472 154.048 254.972 148.68C257.546 143.312 260.083 139.01 262.583 135.775C265.083 132.466 267.657 130.076 270.305 128.605C272.952 127.135 275.709 126.399 278.577 126.399C282.033 126.399 284.387 127.245 285.637 128.936C286.96 130.554 287.549 132.65 287.401 135.223C287.254 137.797 286.74 140.408 285.857 143.055L275.158 175.263C274.57 177.175 274.312 178.793 274.386 180.117C274.459 181.44 275.305 182.102 276.923 182.102C278.32 182.102 279.68 181.33 281.004 179.786C282.401 178.242 283.872 175.263 285.416 170.851L286.85 166.77H288.946L286.188 174.822C285.159 177.911 283.872 180.264 282.328 181.882C280.857 183.499 279.276 184.602 277.584 185.191C275.967 185.853 274.386 186.183 272.841 186.183C269.9 186.183 267.841 185.522 266.665 184.198C265.488 182.874 264.973 181.036 265.12 178.683C265.341 176.33 265.929 173.682 266.885 170.741L277.364 139.194C277.732 138.091 278.062 136.804 278.357 135.334C278.651 133.863 278.577 132.613 278.136 131.583C277.768 130.48 276.702 129.929 274.937 129.929C273.099 129.929 271.113 130.775 268.981 132.466C266.922 134.084 264.789 136.437 262.583 139.525C260.377 142.614 258.208 146.327 256.075 150.666C253.943 155.004 251.884 159.858 249.898 165.226C247.987 170.52 246.185 176.256 244.494 182.433L247.031 168.314Z" fill="white"/>
<path d="M205.202 159.821L207.959 159.931C205.312 161.402 202.849 162.762 200.569 164.012C198.363 165.189 196.561 166.292 195.164 167.321C193.767 168.351 193.068 169.344 193.068 170.299C193.068 171.035 193.583 171.733 194.613 172.395C195.642 172.984 197.333 173.572 199.686 174.16L207.739 176.256C210.092 176.844 212.188 177.543 214.026 178.352C215.938 179.087 217.445 180.043 218.548 181.219C219.651 182.396 220.203 183.94 220.203 185.852C220.203 187.691 219.578 189.75 218.328 192.029C217.151 194.382 215.276 196.625 212.702 198.758C210.202 200.89 206.93 202.655 202.885 204.052C198.841 205.449 193.951 206.148 188.215 206.148C184.391 206.148 181.192 205.78 178.619 205.045C175.971 204.383 174.023 203.427 172.773 202.177C171.449 200.927 170.787 199.493 170.787 197.875C170.787 196.699 171.118 195.449 171.78 194.125C172.442 192.875 173.434 191.625 174.758 190.375C176.008 189.198 177.626 188.058 179.611 186.955C181.523 185.926 183.803 185.043 186.45 184.308L187.222 185.963C184.501 187.36 182.626 188.941 181.597 190.706C180.567 192.47 180.053 194.235 180.053 196C180.053 198.942 181.082 201.037 183.141 202.287C185.2 203.611 187.737 204.273 190.752 204.273C193.179 204.273 195.679 203.868 198.253 203.06C200.826 202.324 203.216 201.295 205.422 199.971C207.628 198.721 209.393 197.25 210.717 195.559C212.04 193.868 212.702 192.103 212.702 190.264C212.702 189.161 212.335 188.426 211.599 188.058C210.937 187.691 209.798 187.323 208.18 186.955L191.303 182.653C189.539 182.212 188.105 181.477 187.002 180.447C185.899 179.344 185.347 177.874 185.347 176.035C185.347 174.565 185.862 173.057 186.891 171.513C187.921 169.969 189.87 168.277 192.737 166.439C195.605 164.527 199.76 162.321 205.202 159.821ZM210.827 128.384C208.474 128.384 206.489 129.083 204.871 130.48C203.253 131.804 201.893 133.532 200.79 135.664C199.76 137.723 198.951 139.893 198.363 142.172C197.848 144.452 197.48 146.548 197.26 148.459C197.039 150.298 196.929 151.658 196.929 152.541C196.929 154.894 197.444 156.585 198.473 157.615C199.576 158.644 201.01 159.159 202.775 159.159C205.569 159.159 207.812 158.313 209.503 156.622C211.268 154.931 212.629 152.835 213.585 150.335C214.541 147.834 215.166 145.334 215.46 142.834C215.828 140.334 216.011 138.238 216.011 136.547C216.011 134.047 215.68 132.061 215.019 130.59C214.357 129.12 212.96 128.384 210.827 128.384ZM211.268 126.399C215.607 126.399 219.1 127.392 221.747 129.377C224.468 131.289 225.828 134.414 225.828 138.753C225.828 142.283 224.836 145.775 222.85 149.232C220.865 152.688 218.07 155.556 214.467 157.835C210.864 160.041 206.599 161.144 201.672 161.144C197.628 161.144 194.208 160.188 191.414 158.276C188.693 156.291 187.333 153.239 187.333 149.121C187.333 147.136 187.737 144.856 188.546 142.283C189.428 139.635 190.789 137.135 192.627 134.782C194.465 132.355 196.892 130.37 199.907 128.826C202.996 127.208 206.783 126.399 211.268 126.399ZM219.1 132.135L217.114 131.363C218.144 128.862 219.909 126.656 222.409 124.744C224.909 122.832 227.52 121.876 230.24 121.876C232.152 121.876 233.697 122.428 234.873 123.531C236.05 124.561 236.638 126.215 236.638 128.495C236.638 130.554 236.123 132.061 235.094 133.017C234.064 133.973 232.961 134.451 231.785 134.451C230.608 134.451 229.468 134.083 228.365 133.348C227.336 132.539 226.711 131.289 226.49 129.598C226.27 127.906 226.748 125.737 227.924 123.09L229.358 123.421C226.27 124.597 224.063 125.847 222.74 127.171C221.416 128.421 220.203 130.076 219.1 132.135Z" fill="white"/>
<path d="M164.527 107.868C164.894 105.957 165.85 104.302 167.394 102.905C169.012 101.508 170.74 100.809 172.579 100.809C174.491 100.809 175.961 101.508 176.991 102.905C178.094 104.302 178.462 105.957 178.094 107.868C177.726 109.78 176.733 111.435 175.116 112.832C173.571 114.229 171.843 114.928 169.931 114.928C168.093 114.928 166.622 114.229 165.519 112.832C164.49 111.435 164.159 109.78 164.527 107.868ZM161.107 137.319C162.651 132.76 162.137 130.481 159.563 130.481C157.872 130.481 156.364 131.4 155.041 133.238C153.717 135.077 152.32 137.908 150.849 141.732L149.305 145.813H147.209L150.077 137.761C151.18 134.672 152.504 132.319 154.048 130.701C155.592 129.083 157.21 127.98 158.901 127.392C160.666 126.73 162.284 126.399 163.754 126.399C166.108 126.399 167.836 126.877 168.939 127.833C170.042 128.789 170.704 130.039 170.924 131.584C171.145 133.128 171.071 134.819 170.704 136.658C170.336 138.422 169.858 140.151 169.27 141.842L157.467 175.264C156.732 177.396 156.474 179.087 156.695 180.338C156.989 181.514 157.835 182.102 159.232 182.102C160.703 182.102 162.1 181.294 163.424 179.676C164.747 178.058 166.218 175.117 167.836 170.852L169.38 166.77H171.476L168.608 174.822C167.578 177.69 166.328 179.97 164.857 181.661C163.387 183.279 161.806 184.419 160.114 185.081C158.423 185.816 156.732 186.184 155.041 186.184C151.878 186.184 149.746 185.448 148.643 183.978C147.54 182.507 147.135 180.595 147.43 178.242C147.724 175.889 148.349 173.388 149.305 170.741L161.107 137.319Z" fill="white"/>
<path d="M105.649 184.639H96.0525L109.289 137.319C110.024 134.819 110.245 133.054 109.951 132.024C109.73 130.995 108.995 130.48 107.745 130.48C106.127 130.48 104.656 131.326 103.333 133.017C102.009 134.708 100.612 137.613 99.141 141.731L97.7071 145.812H95.6113L98.3689 137.76C99.4719 134.672 100.759 132.319 102.23 130.701C103.774 129.083 105.355 127.98 106.973 127.392C108.664 126.73 110.245 126.399 111.716 126.399C113.922 126.399 115.466 126.877 116.348 127.833C117.304 128.789 117.819 130.039 117.893 131.583C118.04 133.127 117.929 134.819 117.562 136.657C117.267 138.422 116.9 140.15 116.459 141.841L105.649 184.639ZM133.997 129.156C132.305 129.156 130.541 129.965 128.702 131.583C126.937 133.127 125.099 135.407 123.187 138.422C121.349 141.363 119.474 144.93 117.562 149.121C115.723 153.239 113.885 157.835 112.046 162.909C110.282 167.983 108.554 173.462 106.862 179.344L109.62 165.226C112.046 158.019 114.289 151.952 116.348 147.026C118.481 142.099 120.577 138.128 122.636 135.113C124.695 132.024 126.79 129.818 128.923 128.495C131.129 127.098 133.445 126.399 135.872 126.399C137.931 126.399 139.512 126.987 140.615 128.164C141.792 129.34 142.38 130.848 142.38 132.686C142.38 134.157 142.012 135.517 141.277 136.767C140.541 137.944 139.585 138.9 138.409 139.635C137.306 140.297 136.056 140.628 134.659 140.628C133.409 140.628 132.342 140.297 131.46 139.635C130.651 138.9 130.246 137.907 130.246 136.657C130.246 135.481 130.467 134.451 130.908 133.569C131.35 132.613 131.938 131.804 132.673 131.142C133.409 130.48 134.254 129.965 135.21 129.598C135.063 129.451 134.879 129.34 134.659 129.267C134.512 129.193 134.291 129.156 133.997 129.156Z" fill="white"/>
<path d="M47.8715 132.576L16.5455 185.191H14.7806L6.06667 115.81C5.69899 112.942 4.8901 111.067 3.64 110.184C2.3899 109.302 1.17657 108.824 0 108.75L0.441212 106.544C1.91192 106.618 3.56647 106.691 5.40485 106.765C7.31677 106.839 9.30223 106.875 11.3612 106.875C13.7879 106.875 16.0307 106.839 18.0897 106.765C20.2222 106.691 21.9503 106.618 23.2739 106.544L22.8327 108.75C20.3325 108.898 18.5677 109.559 17.5382 110.736C16.5087 111.913 16.2145 114.339 16.6558 118.016L22.943 171.623L21.9503 172.064L46.8788 129.929L47.8715 132.576ZM83.4994 124.414C85.6319 120.148 86.8085 116.913 87.0291 114.707C87.3233 112.501 86.7717 110.993 85.3746 110.184C83.9774 109.302 81.7346 108.824 78.6461 108.75L79.1976 106.544C80.5948 106.618 81.9919 106.691 83.3891 106.765C84.8598 106.765 86.2938 106.802 87.6909 106.875C89.1616 106.875 90.522 106.875 91.7721 106.875C93.6841 106.875 95.2651 106.839 96.5152 106.765C97.7653 106.691 98.9786 106.618 100.155 106.544L99.6037 108.75C98.5742 108.971 97.4711 109.376 96.2946 109.964C95.118 110.552 93.9047 111.508 92.6546 112.832C91.478 114.155 90.3014 115.994 89.1249 118.347L56.1443 185.191H54.3794L43.4594 115.81C43.0182 113.016 42.3196 111.177 41.3636 110.295C40.4812 109.339 39.5253 108.824 38.4958 108.75L38.937 106.544C40.2606 106.618 41.7681 106.691 43.4594 106.765C45.1507 106.839 46.9156 106.875 48.7539 106.875C51.6218 106.875 54.3059 106.839 56.8061 106.765C59.3063 106.691 61.3285 106.618 62.8727 106.544L62.4315 108.75C58.6077 108.898 56.1075 109.523 54.9309 110.626C53.7544 111.729 53.4602 114.192 54.0485 118.016L62.1006 169.197L61.3285 169.417L83.4994 124.414Z" fill="white"/>
<path d="M307.015 34.7283L290.552 34.7282C290.52 34.7281 290.491 34.7375 290.459 34.7376C292.782 36.4702 294.663 38.756 295.841 41.4402H307.015C310.717 41.4402 313.727 44.4504 313.727 48.1522C313.727 51.8539 310.717 54.8642 307.015 54.8641C306.384 54.8642 289.6 54.8642 290.552 54.8641C286.821 54.8642 283.84 51.7238 283.84 48.1521C283.84 46.3022 282.334 44.7963 280.484 44.7961H277.602C277.323 45.8747 277.128 46.9863 277.128 48.1522C277.128 55.1828 282.898 61.5144 290.459 61.5668C290.491 61.5669 290.52 61.5761 290.552 61.5762L307.015 61.5762C314.429 61.5761 320.439 55.5661 320.439 48.1522C320.439 40.7382 314.429 34.7283 307.015 34.7283Z" fill="white"/>
<path d="M275.195 54.8643H263.985C260.284 54.8645 257.273 51.8541 257.274 48.1525C257.274 44.4507 260.284 41.4405 263.986 41.4405C264.617 41.4405 281.437 41.4405 280.485 41.4405C284.216 41.4405 287.197 44.5807 287.197 48.1525C287.197 50.0025 288.703 51.5085 290.553 51.5084L293.434 51.5084C293.714 50.4298 293.909 49.3183 293.909 48.1525C293.909 41.1352 288.161 34.7903 280.578 34.7378C280.546 34.7377 280.517 34.7285 280.485 34.7285L263.985 34.7285C256.572 34.7285 250.561 40.7384 250.561 48.1525C250.561 55.5664 256.572 61.5765 263.985 61.5765L280.485 61.5763C280.517 61.5764 280.546 61.5672 280.578 61.5669C278.254 59.8344 276.374 57.5486 275.195 54.8643Z" fill="white"/>
</svg>
