<svg width="640" height="155" viewBox="0 0 640 155" fill="none" xmlns="http://www.w3.org/2000/svg">
<path d="M601.387 131.344V131.984C600.662 132.005 600.107 132.112 599.723 132.304C599.36 132.496 599.115 132.805 598.987 133.232C598.859 133.659 598.795 134.267 598.795 135.056V154.16C598.667 154.16 598.539 154.16 598.411 154.16C598.304 154.16 598.187 154.16 598.059 154.16L584.619 133.392V150.288C584.619 151.056 584.683 151.664 584.811 152.112C584.96 152.539 585.238 152.848 585.643 153.04C586.07 153.211 586.699 153.317 587.531 153.36V154C587.147 153.957 586.646 153.936 586.027 153.936C585.408 153.915 584.822 153.904 584.267 153.904C583.734 153.904 583.19 153.915 582.635 153.936C582.102 153.936 581.654 153.957 581.291 154V153.36C582.016 153.317 582.56 153.211 582.923 153.04C583.307 152.848 583.563 152.539 583.691 152.112C583.819 151.664 583.883 151.056 583.883 150.288V134.736C583.883 133.947 583.819 133.371 583.691 133.008C583.563 132.624 583.307 132.368 582.923 132.24C582.56 132.091 582.016 132.005 581.291 131.984V131.344C581.654 131.365 582.102 131.387 582.635 131.408C583.19 131.429 583.734 131.44 584.267 131.44C584.736 131.44 585.184 131.429 585.611 131.408C586.038 131.387 586.422 131.365 586.763 131.344L598.059 148.752V135.056C598.059 134.267 597.984 133.659 597.835 133.232C597.707 132.805 597.43 132.496 597.003 132.304C596.598 132.112 595.979 132.005 595.147 131.984V131.344C595.531 131.365 596.032 131.387 596.651 131.408C597.291 131.429 597.878 131.44 598.411 131.44C598.966 131.44 599.51 131.429 600.043 131.408C600.598 131.387 601.046 131.365 601.387 131.344Z" fill="white"/>
<path d="M552.99 130.896C555.017 130.896 556.788 131.355 558.302 132.272C559.838 133.189 561.022 134.512 561.854 136.24C562.708 137.947 563.134 140.027 563.134 142.48C563.134 144.869 562.697 146.96 561.822 148.752C560.969 150.544 559.774 151.941 558.238 152.944C556.702 153.947 554.942 154.448 552.958 154.448C550.932 154.448 549.15 153.989 547.614 153.072C546.1 152.155 544.916 150.832 544.062 149.104C543.23 147.376 542.814 145.296 542.814 142.864C542.814 140.475 543.252 138.384 544.126 136.592C545.001 134.8 546.196 133.403 547.71 132.4C549.246 131.397 551.006 130.896 552.99 130.896ZM552.862 131.472C551.476 131.472 550.27 131.952 549.246 132.912C548.222 133.872 547.422 135.195 546.846 136.88C546.292 138.565 546.014 140.517 546.014 142.736C546.014 144.997 546.324 146.971 546.942 148.656C547.582 150.32 548.436 151.611 549.502 152.528C550.59 153.424 551.785 153.872 553.086 153.872C554.473 153.872 555.678 153.392 556.702 152.432C557.726 151.472 558.516 150.149 559.07 148.464C559.646 146.757 559.934 144.805 559.934 142.608C559.934 140.325 559.614 138.352 558.974 136.688C558.356 135.024 557.513 133.744 556.446 132.848C555.38 131.931 554.185 131.472 552.862 131.472Z" fill="white"/>
<path d="M524.668 131.344V131.984C523.942 132.005 523.388 132.091 523.004 132.24C522.641 132.368 522.396 132.624 522.268 133.008C522.14 133.371 522.076 133.947 522.076 134.736V150.608C522.076 151.376 522.14 151.952 522.268 152.336C522.396 152.72 522.641 152.976 523.004 153.104C523.388 153.232 523.942 153.317 524.668 153.36V154C524.177 153.957 523.558 153.936 522.812 153.936C522.086 153.915 521.35 153.904 520.604 153.904C519.772 153.904 518.993 153.915 518.268 153.936C517.542 153.936 516.956 153.957 516.508 154V153.36C517.233 153.317 517.777 153.232 518.14 153.104C518.524 152.976 518.78 152.72 518.908 152.336C519.036 151.952 519.1 151.376 519.1 150.608V134.736C519.1 133.947 519.036 133.371 518.908 133.008C518.78 132.624 518.524 132.368 518.14 132.24C517.777 132.091 517.233 132.005 516.508 131.984V131.344C516.956 131.365 517.542 131.387 518.268 131.408C518.993 131.429 519.772 131.44 520.604 131.44C521.35 131.44 522.086 131.429 522.812 131.408C523.558 131.387 524.177 131.365 524.668 131.344Z" fill="white"/>
<path d="M498.873 131.344C498.788 132.155 498.724 132.944 498.681 133.712C498.66 134.459 498.649 135.035 498.649 135.44C498.649 135.952 498.66 136.432 498.681 136.88C498.703 137.328 498.724 137.723 498.745 138.064H498.009C497.86 136.571 497.657 135.397 497.401 134.544C497.145 133.669 496.697 133.04 496.057 132.656C495.417 132.272 494.425 132.08 493.081 132.08H491.353V150.288C491.353 151.141 491.428 151.781 491.577 152.208C491.748 152.635 492.068 152.923 492.537 153.072C493.007 153.221 493.689 153.317 494.585 153.36V154C494.031 153.957 493.327 153.936 492.473 153.936C491.62 153.915 490.756 153.904 489.881 153.904C488.921 153.904 488.015 153.915 487.161 153.936C486.329 153.936 485.657 153.957 485.145 154V153.36C486.041 153.317 486.724 153.221 487.193 153.072C487.663 152.923 487.972 152.635 488.121 152.208C488.292 151.781 488.377 151.141 488.377 150.288V132.08H486.649C485.327 132.08 484.335 132.272 483.673 132.656C483.033 133.04 482.585 133.669 482.329 134.544C482.073 135.397 481.871 136.571 481.721 138.064H480.985C481.028 137.723 481.049 137.328 481.049 136.88C481.071 136.432 481.081 135.952 481.081 135.44C481.081 135.035 481.06 134.459 481.017 133.712C480.996 132.944 480.943 132.155 480.857 131.344C481.753 131.365 482.724 131.387 483.769 131.408C484.836 131.429 485.903 131.44 486.969 131.44C488.036 131.44 489.007 131.44 489.881 131.44C490.756 131.44 491.716 131.44 492.761 131.44C493.828 131.44 494.895 131.429 495.961 131.408C497.028 131.387 497.999 131.365 498.873 131.344Z" fill="white"/>
<path d="M456.343 131.184L464.151 151.312C464.471 152.123 464.834 152.667 465.239 152.944C465.645 153.2 466.018 153.339 466.359 153.36V154C465.933 153.957 465.41 153.936 464.791 153.936C464.173 153.915 463.554 153.904 462.935 153.904C462.103 153.904 461.325 153.915 460.599 153.936C459.874 153.936 459.287 153.957 458.839 154V153.36C459.927 153.317 460.621 153.136 460.919 152.816C461.218 152.475 461.154 151.76 460.727 150.672L454.775 134.768L455.287 134.352L449.719 148.816C449.378 149.669 449.175 150.395 449.111 150.992C449.047 151.568 449.101 152.027 449.271 152.368C449.463 152.709 449.773 152.955 450.199 153.104C450.647 153.253 451.202 153.339 451.863 153.36V154C451.266 153.957 450.637 153.936 449.975 153.936C449.335 153.915 448.738 153.904 448.183 153.904C447.65 153.904 447.191 153.915 446.807 153.936C446.445 153.936 446.103 153.957 445.783 154V153.36C446.21 153.253 446.647 153.008 447.095 152.624C447.543 152.219 447.949 151.536 448.311 150.576L455.831 131.184C455.917 131.184 456.002 131.184 456.087 131.184C456.173 131.184 456.258 131.184 456.343 131.184ZM460.247 144.784V145.424H450.711L451.031 144.784H460.247Z" fill="white"/>
<path d="M418.291 131.344C422.109 131.344 424.947 132.304 426.803 134.224C428.659 136.123 429.587 138.853 429.587 142.416C429.587 144.741 429.128 146.779 428.211 148.528C427.315 150.256 426.003 151.6 424.275 152.56C422.547 153.52 420.456 154 418.003 154C417.683 154 417.256 153.989 416.723 153.968C416.189 153.947 415.635 153.936 415.059 153.936C414.504 153.915 413.992 153.904 413.523 153.904C412.776 153.904 412.04 153.915 411.315 153.936C410.589 153.936 410.003 153.957 409.555 154V153.36C410.28 153.317 410.824 153.232 411.187 153.104C411.571 152.976 411.827 152.72 411.955 152.336C412.083 151.952 412.147 151.376 412.147 150.608V134.736C412.147 133.947 412.083 133.371 411.955 133.008C411.827 132.624 411.571 132.368 411.187 132.24C410.824 132.091 410.28 132.005 409.555 131.984V131.344C410.003 131.365 410.589 131.397 411.315 131.44C412.04 131.461 412.755 131.461 413.459 131.44C414.205 131.419 415.048 131.397 415.987 131.376C416.925 131.355 417.693 131.344 418.291 131.344ZM417.491 131.92C416.509 131.92 415.869 132.101 415.571 132.464C415.272 132.827 415.123 133.563 415.123 134.672V150.672C415.123 151.781 415.272 152.517 415.571 152.88C415.891 153.243 416.541 153.424 417.523 153.424C419.848 153.424 421.651 153.008 422.931 152.176C424.211 151.323 425.107 150.085 425.619 148.464C426.131 146.843 426.387 144.869 426.387 142.544C426.387 140.155 426.099 138.181 425.523 136.624C424.968 135.045 424.04 133.872 422.739 133.104C421.459 132.315 419.709 131.92 417.491 131.92Z" fill="white"/>
<path d="M391.696 131.344V131.984C390.97 132.005 390.416 132.112 390.032 132.304C389.669 132.496 389.424 132.805 389.296 133.232C389.168 133.659 389.104 134.267 389.104 135.056V154.16C388.976 154.16 388.848 154.16 388.72 154.16C388.613 154.16 388.496 154.16 388.368 154.16L374.928 133.392V150.288C374.928 151.056 374.992 151.664 375.12 152.112C375.269 152.539 375.546 152.848 375.952 153.04C376.378 153.211 377.008 153.317 377.84 153.36V154C377.456 153.957 376.954 153.936 376.336 153.936C375.717 153.915 375.13 153.904 374.576 153.904C374.042 153.904 373.498 153.915 372.944 153.936C372.41 153.936 371.962 153.957 371.6 154V153.36C372.325 153.317 372.869 153.211 373.232 153.04C373.616 152.848 373.872 152.539 374 152.112C374.128 151.664 374.192 151.056 374.192 150.288V134.736C374.192 133.947 374.128 133.371 374 133.008C373.872 132.624 373.616 132.368 373.232 132.24C372.869 132.091 372.325 132.005 371.6 131.984V131.344C371.962 131.365 372.41 131.387 372.944 131.408C373.498 131.429 374.042 131.44 374.576 131.44C375.045 131.44 375.493 131.429 375.92 131.408C376.346 131.387 376.73 131.365 377.072 131.344L388.368 148.752V135.056C388.368 134.267 388.293 133.659 388.144 133.232C388.016 132.805 387.738 132.496 387.312 132.304C386.906 132.112 386.288 132.005 385.456 131.984V131.344C385.84 131.365 386.341 131.387 386.96 131.408C387.6 131.429 388.186 131.44 388.72 131.44C389.274 131.44 389.818 131.429 390.352 131.408C390.906 131.387 391.354 131.365 391.696 131.344Z" fill="white"/>
<path d="M354.043 131.344V131.984C353.318 132.005 352.763 132.112 352.379 132.304C352.017 132.496 351.771 132.805 351.643 133.232C351.515 133.659 351.451 134.267 351.451 135.056V144.688C351.451 146.181 351.355 147.483 351.163 148.592C350.971 149.701 350.63 150.661 350.139 151.472C349.606 152.368 348.827 153.093 347.803 153.648C346.779 154.181 345.606 154.448 344.283 154.448C343.259 154.448 342.278 154.32 341.339 154.064C340.422 153.829 339.611 153.381 338.907 152.72C338.289 152.123 337.798 151.493 337.435 150.832C337.094 150.171 336.859 149.36 336.731 148.4C336.603 147.44 336.539 146.235 336.539 144.784V134.736C336.539 133.947 336.475 133.371 336.347 133.008C336.219 132.624 335.963 132.368 335.579 132.24C335.217 132.091 334.673 132.005 333.947 131.984V131.344C334.395 131.365 334.982 131.387 335.707 131.408C336.433 131.429 337.211 131.44 338.043 131.44C338.79 131.44 339.526 131.429 340.251 131.408C340.998 131.387 341.617 131.365 342.107 131.344V131.984C341.382 132.005 340.827 132.091 340.443 132.24C340.081 132.368 339.835 132.624 339.707 133.008C339.579 133.371 339.515 133.947 339.515 134.736V145.328C339.515 146.416 339.569 147.451 339.675 148.432C339.782 149.392 339.995 150.245 340.315 150.992C340.657 151.717 341.169 152.293 341.851 152.72C342.534 153.125 343.441 153.328 344.571 153.328C346.193 153.328 347.441 152.976 348.315 152.272C349.211 151.547 349.83 150.555 350.171 149.296C350.534 148.037 350.715 146.619 350.715 145.04V135.056C350.715 134.267 350.619 133.659 350.427 133.232C350.257 132.805 349.958 132.496 349.531 132.304C349.105 132.112 348.529 132.005 347.803 131.984V131.344C348.187 131.365 348.689 131.387 349.307 131.408C349.947 131.429 350.534 131.44 351.067 131.44C351.622 131.44 352.166 131.429 352.699 131.408C353.254 131.387 353.702 131.365 354.043 131.344Z" fill="white"/>
<path d="M306.065 130.896C308.091 130.896 309.862 131.355 311.377 132.272C312.913 133.189 314.097 134.512 314.929 136.24C315.782 137.947 316.209 140.027 316.209 142.48C316.209 144.869 315.771 146.96 314.897 148.752C314.043 150.544 312.849 151.941 311.313 152.944C309.777 153.947 308.017 154.448 306.033 154.448C304.006 154.448 302.225 153.989 300.689 153.072C299.174 152.155 297.99 150.832 297.137 149.104C296.305 147.376 295.889 145.296 295.889 142.864C295.889 140.475 296.326 138.384 297.201 136.592C298.075 134.8 299.27 133.403 300.785 132.4C302.321 131.397 304.081 130.896 306.065 130.896ZM305.937 131.472C304.55 131.472 303.345 131.952 302.321 132.912C301.297 133.872 300.497 135.195 299.921 136.88C299.366 138.565 299.089 140.517 299.089 142.736C299.089 144.997 299.398 146.971 300.017 148.656C300.657 150.32 301.51 151.611 302.577 152.528C303.665 153.424 304.859 153.872 306.161 153.872C307.547 153.872 308.753 153.392 309.777 152.432C310.801 151.472 311.59 150.149 312.145 148.464C312.721 146.757 313.009 144.805 313.009 142.608C313.009 140.325 312.689 138.352 312.049 136.688C311.43 135.024 310.587 133.744 309.521 132.848C308.454 131.931 307.259 131.472 305.937 131.472Z" fill="white"/>
<path d="M278.238 131.344C278.152 132.155 278.088 132.944 278.046 133.712C278.024 134.459 278.014 135.035 278.014 135.44C278.014 135.952 278.024 136.432 278.046 136.88C278.067 137.328 278.088 137.723 278.11 138.064H277.374C277.224 136.571 277.022 135.397 276.766 134.544C276.51 133.669 276.062 133.04 275.422 132.656C274.782 132.272 273.79 132.08 272.446 132.08H270.43C269.704 132.08 269.15 132.144 268.766 132.272C268.403 132.379 268.158 132.624 268.03 133.008C267.902 133.371 267.838 133.947 267.838 134.736V150.608C267.838 151.376 267.912 151.952 268.062 152.336C268.232 152.72 268.552 152.976 269.022 153.104C269.491 153.232 270.174 153.317 271.07 153.36V154C270.515 153.957 269.811 153.936 268.958 153.936C268.104 153.915 267.24 153.904 266.366 153.904C265.534 153.904 264.755 153.915 264.03 153.936C263.304 153.936 262.718 153.957 262.27 154V153.36C262.995 153.317 263.539 153.232 263.902 153.104C264.286 152.976 264.542 152.72 264.67 152.336C264.798 151.952 264.862 151.376 264.862 150.608V134.736C264.862 133.947 264.798 133.371 264.67 133.008C264.542 132.624 264.286 132.368 263.902 132.24C263.539 132.091 262.995 132.005 262.27 131.984V131.344C263.059 131.365 263.891 131.387 264.766 131.408C265.64 131.408 266.504 131.419 267.358 131.44C268.211 131.44 269 131.44 269.726 131.44C270.472 131.44 271.08 131.44 271.55 131.44C272.531 131.44 273.64 131.44 274.878 131.44C276.136 131.419 277.256 131.387 278.238 131.344ZM273.278 142.608C273.278 142.608 273.278 142.715 273.278 142.928C273.278 143.141 273.278 143.248 273.278 143.248H266.878C266.878 143.248 266.878 143.141 266.878 142.928C266.878 142.715 266.878 142.608 266.878 142.608H273.278ZM273.886 138.384C273.8 139.6 273.758 140.528 273.758 141.168C273.779 141.808 273.79 142.395 273.79 142.928C273.79 143.461 273.8 144.048 273.822 144.688C273.843 145.328 273.896 146.256 273.982 147.472H273.246C273.16 146.789 273.054 146.128 272.926 145.488C272.819 144.827 272.563 144.293 272.158 143.888C271.774 143.461 271.112 143.248 270.174 143.248V142.608C270.878 142.608 271.411 142.469 271.774 142.192C272.158 141.893 272.435 141.52 272.606 141.072C272.776 140.624 272.894 140.165 272.958 139.696C273.022 139.205 273.086 138.768 273.15 138.384H273.886Z" fill="white"/>
<path d="M223.178 131.344V131.984C222.772 132.069 222.367 132.336 221.962 132.784C221.556 133.211 221.108 133.893 220.618 134.832L214.154 147.632H213.61L206.122 133.808C205.695 133.019 205.332 132.528 205.034 132.336C204.756 132.123 204.5 132.016 204.266 132.016V131.344C204.692 131.365 205.13 131.387 205.578 131.408C206.047 131.429 206.548 131.44 207.082 131.44C207.786 131.44 208.532 131.44 209.322 131.44C210.132 131.419 210.879 131.387 211.562 131.344V132.016C211.028 132.016 210.559 132.08 210.154 132.208C209.748 132.336 209.482 132.571 209.354 132.912C209.226 133.253 209.322 133.733 209.642 134.352L215.05 144.72L214.794 144.912L219.05 136.432C219.647 135.259 219.935 134.352 219.914 133.712C219.914 133.072 219.668 132.635 219.178 132.4C218.687 132.144 217.994 132.005 217.098 131.984V131.344C217.716 131.365 218.346 131.387 218.986 131.408C219.626 131.429 220.223 131.44 220.778 131.44C221.332 131.44 221.791 131.429 222.154 131.408C222.516 131.387 222.858 131.365 223.178 131.344ZM215.594 144.272V150.608C215.594 151.376 215.658 151.952 215.786 152.336C215.914 152.72 216.159 152.976 216.522 153.104C216.906 153.232 217.46 153.317 218.186 153.36V154C217.695 153.957 217.076 153.936 216.33 153.936C215.604 153.915 214.868 153.904 214.122 153.904C213.29 153.904 212.511 153.915 211.786 153.936C211.06 153.936 210.474 153.957 210.026 154V153.36C210.751 153.317 211.295 153.232 211.658 153.104C212.042 152.976 212.298 152.72 212.426 152.336C212.554 151.952 212.618 151.376 212.618 150.608V144.048L214.346 146.032L215.594 144.272Z" fill="white"/>
<path d="M181.943 131.344V131.984C181.218 132.005 180.663 132.091 180.279 132.24C179.917 132.368 179.671 132.624 179.543 133.008C179.415 133.371 179.351 133.947 179.351 134.736V150.608C179.351 151.376 179.415 151.952 179.543 152.336C179.671 152.72 179.917 152.976 180.279 153.104C180.663 153.211 181.218 153.264 181.943 153.264H184.279C185.282 153.264 186.093 153.157 186.711 152.944C187.351 152.731 187.853 152.4 188.215 151.952C188.599 151.483 188.887 150.864 189.079 150.096C189.271 149.328 189.421 148.389 189.527 147.28H190.263C190.199 147.941 190.167 148.816 190.167 149.904C190.167 150.309 190.178 150.896 190.199 151.664C190.242 152.411 190.306 153.189 190.391 154C189.303 153.957 188.077 153.936 186.711 153.936C185.346 153.915 184.13 153.904 183.063 153.904C182.594 153.904 181.986 153.904 181.239 153.904C180.514 153.904 179.725 153.915 178.871 153.936C178.018 153.936 177.154 153.947 176.279 153.968C175.405 153.968 174.573 153.979 173.783 154V153.36C174.509 153.317 175.053 153.232 175.415 153.104C175.799 152.976 176.055 152.72 176.183 152.336C176.311 151.952 176.375 151.376 176.375 150.608V134.736C176.375 133.947 176.311 133.371 176.183 133.008C176.055 132.624 175.799 132.368 175.415 132.24C175.053 132.091 174.509 132.005 173.783 131.984V131.344C174.231 131.365 174.818 131.387 175.543 131.408C176.269 131.429 177.047 131.44 177.879 131.44C178.626 131.44 179.362 131.429 180.087 131.408C180.834 131.387 181.453 131.365 181.943 131.344Z" fill="white"/>
<path d="M155.74 131.344V131.984C155.015 132.005 154.46 132.091 154.076 132.24C153.713 132.368 153.468 132.624 153.34 133.008C153.212 133.371 153.148 133.947 153.148 134.736V150.608C153.148 151.376 153.212 151.952 153.34 152.336C153.468 152.72 153.713 152.976 154.076 153.104C154.46 153.232 155.015 153.317 155.74 153.36V154C155.249 153.957 154.631 153.936 153.884 153.936C153.159 153.915 152.423 153.904 151.676 153.904C150.844 153.904 150.065 153.915 149.34 153.936C148.615 153.936 148.028 153.957 147.58 154V153.36C148.305 153.317 148.849 153.232 149.212 153.104C149.596 152.976 149.852 152.72 149.98 152.336C150.108 151.952 150.172 151.376 150.172 150.608V134.736C150.172 133.947 150.108 133.371 149.98 133.008C149.852 132.624 149.596 132.368 149.212 132.24C148.849 132.091 148.305 132.005 147.58 131.984V131.344C148.028 131.365 148.615 131.387 149.34 131.408C150.065 131.429 150.844 131.44 151.676 131.44C152.423 131.44 153.159 131.429 153.884 131.408C154.631 131.387 155.249 131.365 155.74 131.344Z" fill="white"/>
<path d="M129.53 131.344V131.984C128.804 132.005 128.25 132.091 127.866 132.24C127.503 132.368 127.258 132.624 127.13 133.008C127.002 133.371 126.938 133.947 126.938 134.736V150.608C126.938 151.376 127.002 151.952 127.13 152.336C127.258 152.72 127.503 152.976 127.866 153.104C128.25 153.232 128.804 153.317 129.53 153.36V154C129.039 153.957 128.42 153.936 127.674 153.936C126.948 153.915 126.212 153.904 125.466 153.904C124.634 153.904 123.855 153.915 123.13 153.936C122.404 153.936 121.818 153.957 121.37 154V153.36C122.095 153.317 122.639 153.232 123.002 153.104C123.386 152.976 123.642 152.72 123.77 152.336C123.898 151.952 123.962 151.376 123.962 150.608V133.008L124.09 133.104L116.25 154.16H115.738L107.674 133.392V150.288C107.674 151.056 107.738 151.664 107.866 152.112C108.015 152.539 108.292 152.848 108.698 153.04C109.124 153.211 109.754 153.317 110.586 153.36V154C110.202 153.957 109.7 153.936 109.082 153.936C108.463 153.915 107.876 153.904 107.322 153.904C106.788 153.904 106.244 153.915 105.69 153.936C105.156 153.936 104.708 153.957 104.346 154V153.36C105.071 153.317 105.615 153.211 105.978 153.04C106.362 152.848 106.618 152.539 106.746 152.112C106.874 151.664 106.938 151.056 106.938 150.288V134.736C106.938 133.947 106.874 133.371 106.746 133.008C106.618 132.624 106.362 132.368 105.978 132.24C105.615 132.091 105.071 132.005 104.346 131.984V131.344C104.708 131.365 105.156 131.387 105.69 131.408C106.244 131.429 106.788 131.44 107.322 131.44C107.791 131.44 108.271 131.429 108.762 131.408C109.274 131.387 109.7 131.365 110.042 131.344L117.306 150.48L116.762 150.736L123.962 131.44C124.218 131.44 124.463 131.44 124.698 131.44C124.954 131.44 125.21 131.44 125.466 131.44C126.212 131.44 126.948 131.429 127.674 131.408C128.42 131.387 129.039 131.365 129.53 131.344Z" fill="white"/>
<path d="M78.4467 131.184L86.2547 151.312C86.5747 152.123 86.9374 152.667 87.3427 152.944C87.7481 153.2 88.1214 153.339 88.4627 153.36V154C88.0361 153.957 87.5134 153.936 86.8947 153.936C86.2761 153.915 85.6574 153.904 85.0387 153.904C84.2067 153.904 83.4281 153.915 82.7027 153.936C81.9774 153.936 81.3907 153.957 80.9427 154V153.36C82.0307 153.317 82.7241 153.136 83.0227 152.816C83.3214 152.475 83.2574 151.76 82.8307 150.672L76.8787 134.768L77.3907 134.352L71.8227 148.816C71.4814 149.669 71.2787 150.395 71.2147 150.992C71.1507 151.568 71.2041 152.027 71.3747 152.368C71.5667 152.709 71.8761 152.955 72.3027 153.104C72.7507 153.253 73.3054 153.339 73.9667 153.36V154C73.3694 153.957 72.7401 153.936 72.0787 153.936C71.4387 153.915 70.8414 153.904 70.2867 153.904C69.7534 153.904 69.2947 153.915 68.9107 153.936C68.5481 153.936 68.2067 153.957 67.8867 154V153.36C68.3134 153.253 68.7507 153.008 69.1987 152.624C69.6467 152.219 70.0521 151.536 70.4147 150.576L77.9347 131.184C78.0201 131.184 78.1054 131.184 78.1907 131.184C78.2761 131.184 78.3614 131.184 78.4467 131.184ZM82.3507 144.784V145.424H72.8147L73.1347 144.784H82.3507Z" fill="white"/>
<path d="M53.3118 131.344C53.2264 132.155 53.1624 132.944 53.1198 133.712C53.0984 134.459 53.0878 135.035 53.0878 135.44C53.0878 135.952 53.0984 136.432 53.1198 136.88C53.1411 137.328 53.1624 137.723 53.1838 138.064H52.4478C52.2984 136.571 52.0958 135.397 51.8398 134.544C51.5838 133.669 51.1358 133.04 50.4958 132.656C49.8558 132.272 48.8638 132.08 47.5198 132.08H45.5038C44.7784 132.08 44.2238 132.144 43.8398 132.272C43.4771 132.379 43.2318 132.624 43.1038 133.008C42.9757 133.371 42.9117 133.947 42.9117 134.736V150.608C42.9117 151.376 42.9864 151.952 43.1357 152.336C43.3064 152.72 43.6264 152.976 44.0958 153.104C44.5651 153.232 45.2478 153.317 46.1438 153.36V154C45.5891 153.957 44.8851 153.936 44.0318 153.936C43.1784 153.915 42.3144 153.904 41.4397 153.904C40.6077 153.904 39.8291 153.915 39.1037 153.936C38.3784 153.936 37.7917 153.957 37.3438 154V153.36C38.0691 153.317 38.6131 153.232 38.9757 153.104C39.3598 152.976 39.6158 152.72 39.7438 152.336C39.8718 151.952 39.9358 151.376 39.9358 150.608V134.736C39.9358 133.947 39.8718 133.371 39.7438 133.008C39.6158 132.624 39.3598 132.368 38.9757 132.24C38.6131 132.091 38.0691 132.005 37.3438 131.984V131.344C38.1331 131.365 38.9651 131.387 39.8398 131.408C40.7144 131.408 41.5784 131.419 42.4318 131.44C43.2851 131.44 44.0744 131.44 44.7998 131.44C45.5464 131.44 46.1544 131.44 46.6238 131.44C47.6051 131.44 48.7144 131.44 49.9518 131.44C51.2104 131.419 52.3304 131.387 53.3118 131.344ZM48.3518 142.608C48.3518 142.608 48.3518 142.715 48.3518 142.928C48.3518 143.141 48.3518 143.248 48.3518 143.248H41.9517C41.9517 143.248 41.9517 143.141 41.9517 142.928C41.9517 142.715 41.9517 142.608 41.9517 142.608H48.3518ZM48.9598 138.384C48.8744 139.6 48.8318 140.528 48.8318 141.168C48.8531 141.808 48.8638 142.395 48.8638 142.928C48.8638 143.461 48.8744 144.048 48.8958 144.688C48.9171 145.328 48.9704 146.256 49.0558 147.472H48.3198C48.2344 146.789 48.1278 146.128 47.9998 145.488C47.8931 144.827 47.6371 144.293 47.2318 143.888C46.8478 143.461 46.1864 143.248 45.2478 143.248V142.608C45.9518 142.608 46.4851 142.469 46.8478 142.192C47.2318 141.893 47.5091 141.52 47.6798 141.072C47.8504 140.624 47.9678 140.165 48.0318 139.696C48.0958 139.205 48.1598 138.768 48.2238 138.384H48.9598Z" fill="white"/>
<path d="M200.743 31.6567C198.39 31.6567 196.11 32.6127 193.904 34.5246C191.772 36.363 189.786 38.9 187.948 42.1355C186.183 45.2976 184.602 48.864 183.205 52.8349C181.881 56.8058 180.852 60.9238 180.116 65.1889C179.381 69.4539 179.013 73.5351 179.013 77.4325C179.013 80.7416 179.528 83.1683 180.558 84.7125C181.661 86.2567 183.242 87.0289 185.301 87.0289C187.654 87.0289 189.897 86.1097 192.029 84.2713C194.235 82.3594 196.257 79.8224 198.096 76.6604C199.934 73.4248 201.515 69.8216 202.839 65.8507C204.163 61.8798 205.192 57.7986 205.927 53.607C206.663 49.342 207.03 45.224 207.03 41.2531C207.03 37.8705 206.516 35.4438 205.486 33.9731C204.457 32.4289 202.876 31.6567 200.743 31.6567ZM169.527 71.9174C169.527 68.6818 169.969 65.1521 170.851 61.3283C171.733 57.5044 173.057 53.7174 174.822 49.967C176.587 46.2167 178.719 42.7973 181.219 39.7089C183.793 36.6204 186.771 34.1569 190.154 32.3186C193.537 30.4066 197.287 29.4507 201.405 29.4507C205.964 29.4507 209.604 30.8846 212.325 33.7525C215.119 36.5468 216.516 40.8854 216.516 46.7683C216.516 50.0038 216.075 53.5335 215.193 57.3574C214.31 61.1812 212.987 64.9683 211.222 68.7186C209.457 72.4689 207.288 75.8883 204.714 78.9767C202.214 82.0652 199.272 84.5654 195.89 86.4774C192.507 88.3157 188.757 89.2349 184.639 89.2349C180.08 89.2349 176.403 87.801 173.609 84.9331C170.888 82.0652 169.527 77.7266 169.527 71.9174Z" fill="white"/>
<path d="M167.108 30.9949L166.777 33.2009H132.472L133.024 30.9949H167.108ZM139.091 78.3149C138.429 80.7415 138.576 82.5064 139.532 83.6094C140.561 84.6389 141.885 85.1537 143.503 85.1537C145.121 85.1537 146.738 84.4551 148.356 83.0579C150.047 81.6607 151.702 78.6826 153.32 74.1234L154.864 69.8216H156.96L154.643 76.7706C153.026 81.5504 150.93 84.8228 148.356 86.5876C145.856 88.3525 142.914 89.2349 139.532 89.2349C136.517 89.2349 134.201 88.6098 132.583 87.3597C131.038 86.0361 130.119 84.1977 129.825 81.8446C129.531 79.4915 129.825 76.8074 130.708 73.7925L147.805 14.2288C149.569 14.1553 151.297 14.0082 152.989 13.7876C154.754 13.567 156.335 13.1993 157.732 12.6846L139.091 78.3149Z" fill="white"/>
<path d="M101.005 31.6567C98.6517 31.6567 96.3721 32.6127 94.166 34.5246C92.0335 36.363 90.0481 38.9 88.2097 42.1355C86.4448 45.2976 84.8638 48.864 83.4666 52.8349C82.143 56.8058 81.1135 60.9238 80.3782 65.1889C79.6428 69.4539 79.2751 73.5351 79.2751 77.4325C79.2751 80.7416 79.7899 83.1683 80.8194 84.7125C81.9224 86.2567 83.5034 87.0289 85.5624 87.0289C87.9155 87.0289 90.1584 86.1097 92.2909 84.2713C94.497 82.3594 96.5192 79.8224 98.3575 76.6604C100.196 73.4248 101.777 69.8216 103.101 65.8507C104.424 61.8798 105.454 57.7986 106.189 53.607C106.924 49.342 107.292 45.224 107.292 41.2531C107.292 37.8705 106.777 35.4438 105.748 33.9731C104.718 32.4289 103.137 31.6567 101.005 31.6567ZM69.7891 71.9174C69.7891 68.6818 70.2303 65.1521 71.1127 61.3283C71.9951 57.5044 73.3188 53.7174 75.0836 49.967C76.8485 46.2167 78.981 42.7973 81.4812 39.7089C84.0549 36.6204 87.0331 34.1569 90.4157 32.3186C93.7984 30.4066 97.5487 29.4507 101.667 29.4507C106.226 29.4507 109.866 30.8846 112.587 33.7525C115.381 36.5468 116.778 40.8854 116.778 46.7683C116.778 50.0038 116.337 53.5335 115.455 57.3574C114.572 61.1812 113.248 64.9683 111.484 68.7186C109.719 72.4689 107.549 75.8883 104.976 78.9767C102.476 82.0652 99.5341 84.5654 96.1515 86.4774C92.7689 88.3157 89.0186 89.2349 84.9006 89.2349C80.3414 89.2349 76.6646 87.801 73.8703 84.9331C71.1495 82.0652 69.7891 77.7266 69.7891 71.9174Z" fill="white"/>
<path d="M65.52 8.82413C64.7847 10.736 63.7919 13.5304 62.5418 17.2072C61.3653 20.8104 60.1887 25.5167 59.0121 31.3259H56.8061C57.0267 30.2964 57.1737 29.2302 57.2473 28.1272C57.3944 27.0241 57.4679 25.9946 57.4679 25.0387C57.4679 22.3179 56.9164 19.8544 55.8133 17.6484C54.7838 15.3688 53.1293 13.5672 50.8497 12.2435C48.5701 10.8464 45.5552 10.1478 41.8049 10.1478C37.3927 10.1478 33.716 11.2876 30.7746 13.5672C27.8331 15.8468 26.3624 19.3765 26.3624 24.1563C26.3624 26.9506 27.0243 29.5611 28.3479 31.9878C29.7451 34.3409 31.4731 36.6205 33.5321 38.8266C35.6647 40.9591 37.9075 43.1284 40.2606 45.3344C42.6873 47.467 44.9301 49.673 46.9891 51.9526C49.1216 54.2322 50.8497 56.6589 52.1733 59.2326C53.5705 61.7328 54.2691 64.5272 54.2691 67.6157C54.2691 71.4395 53.4234 74.7118 51.7321 77.4326C50.0408 80.1534 47.8348 82.3963 45.1139 84.1611C42.3931 85.8524 39.3782 87.1025 36.0691 87.9114C32.8335 88.7938 29.598 89.2351 26.3624 89.2351C23.421 89.2351 20.9576 88.9409 18.9721 88.3526C16.9867 87.8379 15.3321 87.1761 14.0085 86.3672C12.6849 85.5583 11.5818 84.8229 10.6994 84.1611C9.89051 83.4993 9.11839 83.0581 8.38303 82.8375C7.72121 82.6169 7.1697 82.5066 6.72849 82.5066C5.77253 82.5066 4.96364 83.0213 4.30182 84.0508C3.71354 85.0068 3.01495 86.4775 2.20606 88.4629H0C0.661818 86.8451 1.3604 84.97 2.09576 82.8375C2.83111 80.7049 3.64 77.9841 4.52243 74.675C5.40485 71.2924 6.39758 67.0641 7.50061 61.9902H9.70667C9.41253 63.5344 9.15515 65.0419 8.93455 66.5126C8.71394 67.9098 8.64041 69.3805 8.71394 70.9247C8.93455 75.9251 10.4788 79.8593 13.3467 82.7272C16.2145 85.595 20.6634 87.029 26.6933 87.029C31.4731 87.029 35.3705 85.926 38.3855 83.7199C41.4004 81.5138 42.9079 78.0209 42.9079 73.2411C42.9079 70.1526 42.2828 67.395 41.0327 64.9684C39.8562 62.5417 38.2752 60.2989 36.2897 58.2399C34.3778 56.1074 32.3188 54.0484 30.1127 52.0629C27.9802 50.0775 25.9212 48.0185 23.9358 45.886C22.0238 43.6799 20.4428 41.2532 19.1927 38.6059C18.0162 35.9587 17.4279 32.9437 17.4279 29.5611C17.4279 26.0314 18.1265 22.9429 19.5236 20.2956C20.9208 17.5748 22.7592 15.332 25.0388 13.5672C27.3919 11.7288 30.0024 10.3684 32.8703 9.48594C35.7382 8.52998 38.6796 8.052 41.6946 8.052C44.783 8.052 47.4303 8.41968 49.6364 9.15504C51.8424 9.89039 53.975 11.067 56.0339 12.6847C56.9164 13.3466 57.6517 13.8613 58.24 14.229C58.8283 14.5231 59.3063 14.6702 59.6739 14.6702C60.7034 14.6702 61.9168 12.7215 63.314 8.82413H65.52Z" fill="white"/>
<path d="M639.891 30.9951L639.56 33.2012H605.256L605.807 30.9951H639.891ZM611.874 78.3151C611.212 80.7418 611.359 82.5066 612.315 83.6097C613.345 84.6392 614.668 85.1539 616.286 85.1539C617.904 85.1539 619.521 84.4553 621.139 83.0582C622.831 81.661 624.485 78.6828 626.103 74.1236L627.647 69.8218H629.743L627.427 76.7709C625.809 81.5507 623.713 84.823 621.139 86.5879C618.639 88.3527 615.698 89.2351 612.315 89.2351C609.3 89.2351 606.984 88.6101 605.366 87.36C603.822 86.0363 602.902 84.198 602.608 81.8448C602.314 79.4917 602.608 76.8077 603.491 73.7927L620.588 14.2291C622.353 14.1555 624.081 14.0084 625.772 13.7878C627.537 13.5672 629.118 13.1996 630.515 12.6848L611.874 78.3151Z" fill="white"/>
<path d="M543.581 87.6909H533.984L555.824 14.1188C556.56 11.6186 556.449 9.7802 555.493 8.60364C554.611 7.42707 552.368 6.83879 548.765 6.83879L549.427 4.52243C553.471 4.44889 557.111 4.04444 560.347 3.30909C563.582 2.5002 566.561 1.39717 569.281 0L543.581 87.6909ZM546.669 71.3661C549.464 63.6449 552.111 57.1002 554.611 51.7321C557.185 46.364 559.722 42.0622 562.222 38.8267C564.722 35.5176 567.296 33.1277 569.943 31.657C572.59 30.1863 575.348 29.4509 578.216 29.4509C581.672 29.4509 584.025 30.2966 585.275 31.9879C586.599 33.6057 587.187 35.7014 587.04 38.2752C586.893 40.8489 586.378 43.4594 585.496 46.1067L574.797 78.3152C574.208 80.2271 573.951 81.8449 574.024 83.1685C574.098 84.4921 574.944 85.154 576.561 85.154C577.959 85.154 579.319 84.3818 580.643 82.8376C582.04 81.2934 583.51 78.3152 585.055 73.903L586.489 69.8218H588.584L585.827 77.874C584.797 80.9624 583.51 83.3156 581.966 84.9333C580.495 86.5511 578.914 87.6542 577.223 88.2424C575.605 88.9043 574.024 89.2352 572.48 89.2352C569.539 89.2352 567.48 88.5733 566.303 87.2497C565.127 85.9261 564.612 84.0877 564.759 81.7346C564.98 79.3814 565.568 76.7342 566.524 73.7927L577.003 42.2461C577.37 41.143 577.701 39.8562 577.995 38.3855C578.289 36.9148 578.216 35.6647 577.775 34.6352C577.407 33.5321 576.341 32.9806 574.576 32.9806C572.738 32.9806 570.752 33.8263 568.62 35.5176C566.561 37.1354 564.428 39.4885 562.222 42.577C560.016 45.6655 557.847 49.379 555.714 53.7176C553.582 58.0562 551.523 62.9095 549.537 68.2776C547.625 73.5721 545.824 79.3079 544.132 85.4849L546.669 71.3661Z" fill="white"/>
<path d="M504.84 62.8727L507.598 62.983C504.951 64.4537 502.487 65.8141 500.208 67.0642C498.002 68.2408 496.2 69.3438 494.803 70.3733C493.406 71.4028 492.707 72.3955 492.707 73.3515C492.707 74.0869 493.222 74.7854 494.251 75.4473C495.281 76.0355 496.972 76.6238 499.325 77.2121L507.377 79.3079C509.73 79.8961 511.826 80.5947 513.665 81.4036C515.576 82.139 517.084 83.0949 518.187 84.2715C519.29 85.4481 519.842 86.9923 519.842 88.9042C519.842 90.7426 519.216 92.8016 517.966 95.0812C516.79 97.4343 514.915 99.6772 512.341 101.81C509.841 103.942 506.568 105.707 502.524 107.104C498.48 108.501 493.589 109.2 487.854 109.2C484.03 109.2 480.831 108.832 478.257 108.097C475.61 107.435 473.661 106.479 472.411 105.229C471.088 103.979 470.426 102.545 470.426 100.927C470.426 99.7507 470.757 98.5006 471.418 97.177C472.08 95.9269 473.073 94.6768 474.397 93.4267C475.647 92.2501 477.265 91.1103 479.25 90.0073C481.162 88.9778 483.442 88.0953 486.089 87.36L486.861 89.0145C484.14 90.4117 482.265 91.9927 481.235 93.7576C480.206 95.5224 479.691 97.2873 479.691 99.0521C479.691 101.994 480.721 104.089 482.78 105.339C484.839 106.663 487.376 107.325 490.391 107.325C492.817 107.325 495.317 106.92 497.891 106.112C500.465 105.376 502.855 104.347 505.061 103.023C507.267 101.773 509.032 100.302 510.355 98.6109C511.679 96.9196 512.341 95.1547 512.341 93.3164C512.341 92.2133 511.973 91.478 511.238 91.1103C510.576 90.7426 509.436 90.3749 507.819 90.0073L490.942 85.7054C489.177 85.2642 487.743 84.5289 486.64 83.4994C485.537 82.3964 484.986 80.9256 484.986 79.0873C484.986 77.6166 485.501 76.1091 486.53 74.5648C487.56 73.0206 489.508 71.3293 492.376 69.4909C495.244 67.579 499.399 65.3729 504.84 62.8727ZM510.466 31.4363C508.113 31.4363 506.127 32.1349 504.509 33.5321C502.892 34.8557 501.531 36.5838 500.428 38.7163C499.399 40.7753 498.59 42.9446 498.002 45.2242C497.487 47.5038 497.119 49.5996 496.899 51.5115C496.678 53.3499 496.568 54.7103 496.568 55.5927C496.568 57.9458 497.082 59.6372 498.112 60.6667C499.215 61.6961 500.649 62.2109 502.414 62.2109C505.208 62.2109 507.451 61.3652 509.142 59.6739C510.907 57.9826 512.267 55.8869 513.223 53.3867C514.179 50.8864 514.804 48.3862 515.099 45.886C515.466 43.3858 515.65 41.2901 515.65 39.5988C515.65 37.0986 515.319 35.1131 514.657 33.6424C513.995 32.1717 512.598 31.4363 510.466 31.4363ZM510.907 29.4509C515.246 29.4509 518.739 30.4436 521.386 32.4291C524.107 34.341 525.467 37.4662 525.467 41.8048C525.467 45.3345 524.474 48.8275 522.489 52.2836C520.503 55.7398 517.709 58.6077 514.106 60.8873C510.503 63.0933 506.237 64.1964 501.311 64.1964C497.266 64.1964 493.847 63.2404 491.052 61.3285C488.332 59.343 486.971 56.2913 486.971 52.1733C486.971 50.1879 487.376 47.9083 488.185 45.3345C489.067 42.6873 490.427 40.187 492.266 37.8339C494.104 35.4073 496.531 33.4218 499.546 31.8776C502.634 30.2598 506.421 29.4509 510.907 29.4509ZM518.739 35.1866L516.753 34.4145C517.783 31.9143 519.547 29.7083 522.048 27.7963C524.548 25.8844 527.158 24.9285 529.879 24.9285C531.791 24.9285 533.335 25.48 534.512 26.583C535.688 27.6125 536.277 29.2671 536.277 31.5466C536.277 33.6056 535.762 35.1131 534.732 36.0691C533.703 37.025 532.6 37.503 531.423 37.503C530.247 37.503 529.107 37.1353 528.004 36.4C526.974 35.5911 526.349 34.341 526.129 32.6497C525.908 30.9584 526.386 28.7891 527.563 26.1418L528.997 26.4727C525.908 27.6493 523.702 28.8994 522.379 30.223C521.055 31.4731 519.842 33.1277 518.739 35.1866Z" fill="white"/>
<path d="M464.165 10.92C464.533 9.00807 465.489 7.35352 467.033 5.95635C468.651 4.55918 470.379 3.8606 472.217 3.8606C474.129 3.8606 475.6 4.55918 476.629 5.95635C477.733 7.35352 478.1 9.00807 477.733 10.92C477.365 12.8319 476.372 14.4865 474.754 15.8836C473.21 17.2808 471.482 17.9794 469.57 17.9794C467.732 17.9794 466.261 17.2808 465.158 15.8836C464.128 14.4865 463.798 12.8319 464.165 10.92ZM460.746 40.3709C462.29 35.8117 461.775 33.5321 459.202 33.5321C457.51 33.5321 456.003 34.4513 454.679 36.2897C453.356 38.1281 451.958 40.9592 450.488 44.783L448.943 48.8642H446.848L449.716 40.8121C450.819 37.7236 452.142 35.3705 453.686 33.7527C455.231 32.1349 456.848 31.0319 458.54 30.4436C460.305 29.7818 461.922 29.4509 463.393 29.4509C465.746 29.4509 467.474 29.9289 468.577 30.8848C469.68 31.8408 470.342 33.0909 470.563 34.6351C470.783 36.1794 470.71 37.8707 470.342 39.7091C469.975 41.4739 469.497 43.202 468.908 44.8933L457.106 78.3152C456.37 80.4477 456.113 82.139 456.334 83.3891C456.628 84.5657 457.474 85.154 458.871 85.154C460.341 85.154 461.739 84.3451 463.062 82.7273C464.386 81.1095 465.857 78.1681 467.474 73.903L469.019 69.8218H471.114L468.246 77.8739C467.217 80.7418 465.967 83.0214 464.496 84.7127C463.025 86.3305 461.444 87.4703 459.753 88.1321C458.062 88.8675 456.37 89.2352 454.679 89.2352C451.517 89.2352 449.385 88.4998 448.282 87.0291C447.179 85.5584 446.774 83.6465 447.068 81.2933C447.362 78.9402 447.987 76.44 448.943 73.7927L460.746 40.3709Z" fill="white"/>
<path d="M405.288 87.6909H395.691L408.928 40.3709C409.663 37.8707 409.884 36.1059 409.589 35.0764C409.369 34.0469 408.633 33.5321 407.383 33.5321C405.766 33.5321 404.295 34.3778 402.971 36.0691C401.648 37.7604 400.25 40.6651 398.78 44.783L397.346 48.8643H395.25L398.008 40.8121C399.111 37.7237 400.397 35.3705 401.868 33.7527C403.412 32.135 404.993 31.0319 406.611 30.4436C408.303 29.7818 409.884 29.4509 411.354 29.4509C413.56 29.4509 415.105 29.9289 415.987 30.8849C416.943 31.8408 417.458 33.0909 417.531 34.6352C417.678 36.1794 417.568 37.8707 417.2 39.7091C416.906 41.474 416.538 43.202 416.097 44.8934L405.288 87.6909ZM433.635 32.2085C431.944 32.2085 430.179 33.0174 428.341 34.6352C426.576 36.1794 424.738 38.459 422.826 41.474C420.987 44.4154 419.112 47.9818 417.2 52.1733C415.362 56.2913 413.524 60.8873 411.685 65.9612C409.92 71.0352 408.192 76.5136 406.501 82.3964L409.258 68.2776C411.685 61.0711 413.928 55.0045 415.987 50.0776C418.119 45.1507 420.215 41.1798 422.274 38.1649C424.333 35.0764 426.429 32.8703 428.562 31.5467C430.768 30.1495 433.084 29.4509 435.511 29.4509C437.57 29.4509 439.151 30.0392 440.254 31.2158C441.43 32.3923 442.018 33.8998 442.018 35.7382C442.018 37.2089 441.651 38.5693 440.915 39.8194C440.18 40.996 439.224 41.9519 438.048 42.6873C436.945 43.3491 435.694 43.68 434.297 43.68C433.047 43.68 431.981 43.3491 431.098 42.6873C430.29 41.9519 429.885 40.9592 429.885 39.7091C429.885 38.5325 430.106 37.503 430.547 36.6206C430.988 35.6647 431.576 34.8558 432.312 34.194C433.047 33.5321 433.893 33.0174 434.849 32.6497C434.702 32.5026 434.518 32.3923 434.297 32.3188C434.15 32.2453 433.93 32.2085 433.635 32.2085Z" fill="white"/>
<path d="M347.51 35.6277L316.184 88.2423H314.419L305.705 18.8616C305.338 15.9938 304.529 14.1186 303.279 13.2362C302.029 12.3538 300.815 11.8758 299.639 11.8023L300.08 9.59619C301.551 9.66973 303.205 9.74326 305.044 9.81679C306.955 9.89033 308.941 9.92709 311 9.92709C313.427 9.92709 315.669 9.89033 317.728 9.81679C319.861 9.74326 321.589 9.66973 322.913 9.59619L322.471 11.8023C319.971 11.9493 318.206 12.6111 317.177 13.7877C316.147 14.9643 315.853 17.3909 316.294 21.0677L322.582 74.675L321.589 75.1162L346.517 32.9804L347.51 35.6277ZM383.138 27.4653C385.271 23.2002 386.447 19.9647 386.668 17.7586C386.962 15.5526 386.41 14.0451 385.013 13.2362C383.616 12.3538 381.373 11.8758 378.285 11.8023L378.836 9.59619C380.233 9.66973 381.631 9.74326 383.028 9.81679C384.498 9.81679 385.932 9.85356 387.33 9.92709C388.8 9.92709 390.161 9.92709 391.411 9.92709C393.323 9.92709 394.904 9.89033 396.154 9.81679C397.404 9.74326 398.617 9.66973 399.794 9.59619L399.242 11.8023C398.213 12.0229 397.11 12.4273 395.933 13.0156C394.757 13.6039 393.543 14.5598 392.293 15.8835C391.117 17.2071 389.94 19.0455 388.764 21.3986L355.783 88.2423H354.018L343.098 18.8616C342.657 16.0673 341.958 14.2289 341.002 13.3465C340.12 12.3905 339.164 11.8758 338.134 11.8023L338.576 9.59619C339.899 9.66973 341.407 9.74326 343.098 9.81679C344.789 9.89033 346.554 9.92709 348.393 9.92709C351.26 9.92709 353.945 9.89033 356.445 9.81679C358.945 9.74326 360.967 9.66973 362.511 9.59619L362.07 11.8023C358.246 11.9493 355.746 12.5744 354.57 13.6774C353.393 14.7804 353.099 17.2439 353.687 21.0677L361.739 72.2483L360.967 72.4689L383.138 27.4653Z" fill="white"/>
<path d="M278.778 47.935L265.326 47.9349C265.3 47.9349 265.276 47.9425 265.25 47.9426C267.149 49.3582 268.685 51.2259 269.648 53.4191L278.778 53.4191C281.802 53.4191 284.262 55.8786 284.262 58.9032C284.262 61.9276 281.802 64.3873 278.778 64.3871C278.262 64.3873 264.548 64.3873 265.326 64.3871C262.278 64.3873 259.842 61.8214 259.842 58.903C259.842 57.3916 258.612 56.1611 257.1 56.161L254.746 56.161C254.517 57.0423 254.358 57.9505 254.358 58.9032C254.358 64.6475 259.072 69.8208 265.25 69.8637C265.276 69.8638 265.3 69.8713 265.326 69.8714H278.778C284.835 69.8713 289.746 64.9607 289.746 58.9032C289.746 52.8455 284.836 47.935 278.778 47.935Z" fill="white"/>
<path d="M252.777 64.3872L243.618 64.3872C240.594 64.3874 238.134 61.9277 238.134 58.9033C238.134 55.8787 240.594 53.4191 243.618 53.4191C244.134 53.4191 257.877 53.4191 257.099 53.4191C260.148 53.4191 262.583 55.9849 262.583 58.9033C262.583 60.4148 263.814 61.6453 265.325 61.6453L267.68 61.6453C267.908 60.764 268.067 59.8558 268.067 58.9033C268.067 53.1697 263.371 47.9856 257.175 47.9427C257.149 47.9426 257.125 47.9351 257.099 47.935L243.618 47.935C237.56 47.935 232.65 52.8456 232.65 58.9033C232.65 64.9608 237.56 69.8715 243.618 69.8715L257.099 69.8714C257.125 69.8714 257.149 69.8639 257.175 69.8637C255.277 68.4481 253.74 66.5805 252.777 64.3872Z" fill="white"/>
</svg>
